<svg width="12" height="12" viewBox="0 0 12 12" fill="none" xmlns="http://www.w3.org/2000/svg">
<g clip-path="url(#clip0_526_214)">
<path d="M9.75 2.75L9.44015 7.76255C9.36095 9.0432 9.3214 9.68355 9.0004 10.144C8.84165 10.3716 8.63735 10.5637 8.40035 10.708C7.92105 11 7.2795 11 5.99635 11C4.71156 11 4.06915 11 3.58952 10.7075C3.3524 10.5629 3.148 10.3704 2.98934 10.1424C2.66844 9.6813 2.62972 9.04005 2.5523 7.7576L2.25 2.75" stroke="#FF4343" stroke-width="0.826322" stroke-linecap="round"/>
<path d="M1.5 2.75049H10.5M8.02785 2.75049L7.68655 2.04635C7.4598 1.57862 7.3464 1.34475 7.15085 1.19889C7.1075 1.16654 7.06155 1.13776 7.0135 1.11284C6.79695 1.00049 6.53705 1.00049 6.01725 1.00049C5.4844 1.00049 5.218 1.00049 4.99784 1.11755C4.94905 1.14349 4.90249 1.17344 4.85864 1.20707C4.66082 1.35884 4.55032 1.60126 4.32931 2.08612L4.02646 2.75049" stroke="#FF4343" stroke-width="0.826322" stroke-linecap="round"/>
<path d="M4.75 8.25049V5.25049" stroke="#FF4343" stroke-width="0.826322" stroke-linecap="round"/>
<path d="M7.25 8.25049V5.25049" stroke="#FF4343" stroke-width="0.826322" stroke-linecap="round"/>
</g>
<defs>
<clipPath id="clip0_526_214">
<rect width="12" height="12" fill="white"/>
</clipPath>
</defs>
</svg>
