<svg width="14" height="14" viewBox="0 0 14 14" fill="none" xmlns="http://www.w3.org/2000/svg">
<g clip-path="url(#clip0_490_727)">
<path d="M8.20974 2.26635C8.64444 1.79538 8.86179 1.5599 9.09273 1.42255C9.64999 1.09111 10.3362 1.08081 10.9028 1.39536C11.1376 1.52572 11.3616 1.75457 11.8097 2.21228C12.2577 2.66999 12.4818 2.89884 12.6094 3.13871C12.9173 3.71749 12.9072 4.41847 12.5828 4.98775C12.4483 5.22368 12.2178 5.44571 11.7568 5.88975L6.27127 11.1732C5.3976 12.0147 4.96075 12.4355 4.41478 12.6487C3.86882 12.8619 3.26862 12.8462 2.06821 12.8149L1.90489 12.8106C1.53945 12.801 1.35672 12.7962 1.25051 12.6757C1.14429 12.5552 1.15879 12.369 1.1878 11.9968L1.20355 11.7947C1.28517 10.7469 1.32598 10.223 1.53058 9.75212C1.73517 9.2812 2.08809 8.89888 2.79392 8.13413L8.20974 2.26635Z" stroke="white" stroke-width="0.875" stroke-linejoin="round"/>
<path d="M7.58325 2.3335L11.6666 6.41683" stroke="white" stroke-width="0.875" stroke-linejoin="round"/>
<path d="M8.16675 12.833H12.8334" stroke="white" stroke-width="0.875" stroke-linecap="round" stroke-linejoin="round"/>
</g>
<defs>
<clipPath id="clip0_490_727">
<rect width="14" height="14" fill="white"/>
</clipPath>
</defs>
</svg>
