<svg width="77" height="35" viewBox="0 0 77 35" fill="none" xmlns="http://www.w3.org/2000/svg">
<path fill-rule="evenodd" clip-rule="evenodd" d="M18.4458 15.9504C19.3229 16.353 20.3294 16.5543 21.4653 16.5543C22.6012 16.5543 23.5861 16.3673 24.4201 15.9935C25.2541 15.6053 25.8939 15.0733 26.3396 14.3975C26.7998 13.7217 27.0298 12.9308 27.0298 12.025C27.0298 11.1191 26.8141 10.3786 26.3828 9.80349C25.9514 9.22834 25.3619 8.77542 24.6142 8.44471C23.8665 8.09962 23.0038 7.81924 22.0261 7.60356L21.228 7.40944C20.581 7.26566 20.0418 7.1003 19.6104 6.91338C19.1791 6.72646 18.8484 6.48921 18.6183 6.20164C18.4026 5.89969 18.2948 5.51865 18.2948 5.05854C18.2948 4.38274 18.5464 3.85792 19.0497 3.48408C19.5673 3.09585 20.2862 2.90174 21.2065 2.90174C21.8391 2.90174 22.3927 2.9952 22.8672 3.18212C23.3417 3.36905 23.7084 3.66381 23.9672 4.06641C24.2404 4.46901 24.377 4.99383 24.377 5.64087V6.41732H26.6847V5.64087C26.6847 4.57685 26.4475 3.69257 25.973 2.98801C25.4985 2.28346 24.8443 1.75145 24.0103 1.39198C23.1907 1.03252 22.2561 0.852783 21.2065 0.852783C20.1568 0.852783 19.2438 1.02533 18.4673 1.37041C17.6909 1.7155 17.0798 2.20438 16.6341 2.83704C16.2027 3.4697 15.987 4.23177 15.987 5.12324C15.987 6.00034 16.1811 6.71927 16.5694 7.28004C16.9576 7.84081 17.504 8.29373 18.2085 8.63882C18.9275 8.96953 19.7686 9.24991 20.732 9.47997L21.53 9.67408C22.1914 9.83225 22.7594 10.0048 23.2339 10.1917C23.7084 10.3643 24.075 10.6015 24.3338 10.9035C24.5926 11.2054 24.722 11.5936 24.722 12.0681C24.722 12.7871 24.4489 13.3766 23.9025 13.8367C23.3561 14.2824 22.5437 14.5053 21.4653 14.5053C20.4013 14.5053 19.5457 14.2393 18.8987 13.7073C18.266 13.1753 17.9497 12.3773 17.9497 11.3132V10.774H15.6419V11.3132C15.6419 12.4348 15.8864 13.391 16.3752 14.1818C16.8785 14.9582 17.5687 15.5478 18.4458 15.9504ZM30.1437 16.166C30.7476 16.4249 31.4306 16.5543 32.1927 16.5543C32.6159 16.5543 32.9913 16.5207 33.3187 16.4537C33.3236 15.7433 33.4706 15.0809 33.8001 14.5044C33.4216 14.6488 32.9936 14.721 32.5162 14.721C31.8691 14.721 31.3587 14.5772 30.9848 14.2896C30.611 14.0021 30.4241 13.6138 30.4241 13.125C30.4241 12.6361 30.6038 12.2694 30.9633 12.025C31.3227 11.7662 31.7972 11.6368 32.3868 11.6368H35.4925V11.8524C35.4925 12.3131 35.4196 12.7238 35.2737 13.0846C35.3438 13.0472 35.4153 13.0117 35.4883 12.9782C36.1246 12.6753 36.8244 12.5339 37.5695 12.5339H37.6709V9.37213C37.6709 8.07805 37.2755 7.07874 36.4847 6.37418C35.6939 5.66963 34.6083 5.31735 33.2279 5.31735C32.3364 5.31735 31.5744 5.46114 30.9417 5.74871C30.309 6.03628 29.7986 6.41732 29.4104 6.89181C29.0365 7.35193 28.7633 7.86956 28.5908 8.44471L30.6613 9.11331C30.7907 8.53817 31.0567 8.07086 31.4593 7.7114C31.8619 7.35193 32.4443 7.1722 33.2063 7.1722C33.9828 7.1722 34.5579 7.35912 34.9318 7.73296C35.3056 8.10681 35.4925 8.60287 35.4925 9.22115V9.91133H32.2574C31.4809 9.91133 30.7835 10.0335 30.1653 10.278C29.5614 10.5224 29.0797 10.8891 28.7202 11.378C28.3751 11.8524 28.2026 12.4563 28.2026 13.1897C28.2026 13.9086 28.3751 14.5197 28.7202 15.0229C29.0797 15.5262 29.5542 15.9072 30.1437 16.166ZM37.6709 13.4326H37.5695C36.9372 13.4326 36.3704 13.5525 35.8689 13.7923C35.3674 14.0213 34.964 14.3647 34.6588 14.8226C34.4228 15.1809 34.2814 15.6093 34.2346 16.1077C34.5477 15.9264 34.7945 15.723 34.9749 15.4974C35.205 15.2099 35.3775 14.9582 35.4925 14.7426H35.8161V14.8073C35.8161 14.8486 35.8158 14.88 35.8157 14.9034V14.904V14.9041V14.9042V14.9044V14.9045V14.9046V14.9047V14.9048V14.9049V14.905C35.8153 14.9443 35.8152 14.9599 35.8168 14.9601C35.8178 14.9602 35.8196 14.9536 35.8225 14.9428C35.8404 14.8763 35.9018 14.6483 36.1049 14.8145C36.26 14.9414 36.2716 14.9213 36.3026 14.8679C36.3347 14.8125 36.3876 14.721 36.6441 14.721L37.1833 14.2896V14.0147C37.3533 14.0349 37.6709 14.0081 37.6709 13.7504V13.4326ZM36.0784 24.652V23.9521H38.2999V24.8794H37.5041C36.9841 24.8794 36.5089 24.8036 36.0784 24.652ZM36.0784 25.5934C36.5296 25.7186 37.0066 25.7781 37.5041 25.7781H38.2999V30.1852C38.2999 31.1054 38.53 31.7884 38.9901 32.2342C39.4502 32.6655 40.0901 32.8812 40.9096 32.8812C41.8155 32.8812 42.5416 32.5793 43.088 31.9754C43.6488 31.3571 43.9292 30.4728 43.9292 29.3225V23.9521H46.1507V34.5851H43.9723V32.9891H43.6272C43.4259 33.4204 43.0664 33.8302 42.5488 34.2184C42.0312 34.5923 41.2691 34.7792 40.2626 34.7792C39.4574 34.7792 38.7385 34.5995 38.1058 34.24C37.4732 33.8805 36.9771 33.3701 36.6176 32.7087C36.2582 32.0473 36.0784 31.2564 36.0784 30.3362V25.5934ZM42.5626 16.2523L38.9823 5.6193H41.3333L44.1587 14.6131H44.5037L47.3292 5.6193H49.6801L46.0998 16.2523H42.5626ZM52.8585 15.8857C53.6637 16.3314 54.6055 16.5543 55.6839 16.5543C56.6472 16.5543 57.4381 16.4033 58.0563 16.1013C58.6746 15.7994 59.1707 15.4255 59.5445 14.9798C59.9328 14.5341 60.2275 14.1099 60.4288 13.7073L58.5955 12.7583C58.3655 13.2472 58.0348 13.6785 57.6034 14.0524C57.1864 14.4262 56.561 14.6131 55.727 14.6131C54.8355 14.6131 54.0878 14.34 53.4839 13.7936C52.8944 13.2328 52.5853 12.4851 52.5565 11.5505H60.7308V10.7093C60.7308 9.63095 60.5151 8.68914 60.0837 7.88394C59.6524 7.07874 59.0485 6.45326 58.272 6.00753C57.51 5.54741 56.6185 5.31735 55.5976 5.31735C54.548 5.31735 53.6205 5.54741 52.8153 6.00753C52.0245 6.45326 51.4062 7.09311 50.9605 7.92708C50.5148 8.74666 50.2919 9.71003 50.2919 10.8172V11.076C50.2919 12.1688 50.5148 13.1321 50.9605 13.9661C51.4206 14.7857 52.0533 15.4255 52.8585 15.8857ZM58.4661 9.84663H52.5781C52.6931 9.04142 53.0094 8.41595 53.5271 7.97021C54.0591 7.5101 54.7421 7.28004 55.576 7.28004C56.41 7.28004 57.0858 7.5101 57.6034 7.97021C58.1211 8.41595 58.4086 9.04142 58.4661 9.84663ZM0.508301 34.5851V19.4875H6.84928C7.7839 19.4875 8.60348 19.6529 9.30803 19.9836C10.027 20.2999 10.5805 20.76 10.9688 21.3639C11.3714 21.9678 11.5727 22.6868 11.5727 23.5207V23.758C11.5727 24.707 11.3426 25.469 10.8825 26.0442C10.4368 26.6049 9.89037 27.0003 9.24333 27.2304V27.5755C9.78972 27.6042 10.2283 27.7912 10.559 28.1363C10.8897 28.467 11.055 28.9487 11.055 29.5813V34.5851H8.70413V29.9048C8.70413 29.5166 8.60348 29.2075 8.40218 28.9774C8.20088 28.7474 7.87736 28.6323 7.43162 28.6323H2.83764V34.5851H0.508301ZM2.83764 26.5187H6.59047C7.42443 26.5187 8.07147 26.3102 8.53158 25.8932C8.9917 25.4618 9.22176 24.8795 9.22176 24.1462V23.9736C9.22176 23.2403 8.9917 22.6652 8.53158 22.2482C8.08585 21.8168 7.43881 21.6012 6.59047 21.6012H2.83764V26.5187ZM15.6023 34.2184C16.4075 34.6642 17.3493 34.887 18.4277 34.887C19.3911 34.887 20.1819 34.7361 20.8002 34.4341C21.4185 34.1322 21.9146 33.7583 22.2884 33.3126C22.6766 32.8668 22.9714 32.4427 23.1727 32.0401L21.3394 31.0911C21.1094 31.5799 20.7787 32.0113 20.3473 32.3851C19.9303 32.759 19.3048 32.9459 18.4709 32.9459C17.5794 32.9459 16.8317 32.6727 16.2278 32.1263C15.6383 31.5656 15.3291 30.8179 15.3004 29.8833H23.4746V29.0421C23.4746 27.9637 23.259 27.0219 22.8276 26.2167C22.3962 25.4115 21.7923 24.786 21.0159 24.3403C20.2538 23.8802 19.3624 23.6501 18.3415 23.6501C17.2918 23.6501 16.3644 23.8802 15.5592 24.3403C14.7684 24.786 14.1501 25.4259 13.7044 26.2598C13.2586 27.0794 13.0358 28.0428 13.0358 29.15V29.4088C13.0358 30.5015 13.2586 31.4649 13.7044 32.2989C14.1645 33.1185 14.7971 33.7583 15.6023 34.2184ZM21.21 28.1794H15.322C15.437 27.3742 15.7533 26.7487 16.2709 26.303C16.803 25.8429 17.4859 25.6128 18.3199 25.6128C19.1539 25.6128 19.8297 25.8429 20.3473 26.303C20.8649 26.7487 21.1525 27.3742 21.21 28.1794ZM29.8584 34.887C28.5068 34.887 27.3853 34.5851 26.4938 33.9812C25.6024 33.3773 25.056 32.4642 24.8547 31.242L26.9252 30.746C27.0402 31.3355 27.2343 31.8028 27.5075 32.1479C27.7807 32.493 28.1186 32.7374 28.5212 32.8812C28.9382 33.025 29.3839 33.0969 29.8584 33.0969C30.563 33.0969 31.1022 32.9603 31.476 32.6871C31.8643 32.4139 32.0584 32.0616 32.0584 31.6303C32.0584 31.1989 31.8786 30.8826 31.5192 30.6813C31.1597 30.48 30.6277 30.3146 29.9231 30.1852L29.1898 30.0558C28.4709 29.9264 27.8167 29.7395 27.2271 29.495C26.6376 29.2506 26.1703 28.9127 25.8252 28.4813C25.4801 28.05 25.3076 27.4964 25.3076 26.8206C25.3076 25.8141 25.6814 25.0377 26.4291 24.4913C27.1768 23.9305 28.1689 23.6501 29.4055 23.6501C30.5989 23.6501 31.5767 23.9233 32.3387 24.4697C33.1152 25.0017 33.6184 25.7278 33.8485 26.6481L31.778 27.2304C31.6486 26.5834 31.3754 26.1304 30.9584 25.8716C30.5414 25.5984 30.0238 25.4618 29.4055 25.4618C28.8016 25.4618 28.3271 25.5769 27.982 25.8069C27.6369 26.0226 27.4644 26.3317 27.4644 26.7343C27.4644 27.1657 27.6297 27.482 27.9604 27.6833C28.3055 27.8846 28.7657 28.0356 29.3408 28.1363L30.0957 28.2657C30.8577 28.3951 31.5551 28.5748 32.1878 28.8049C32.8204 29.0349 33.3165 29.3656 33.676 29.797C34.0498 30.2284 34.2367 30.8035 34.2367 31.5224C34.2367 32.5864 33.8413 33.4132 33.0505 34.0027C32.2597 34.5923 31.1956 34.887 29.8584 34.887ZM48.7875 34.5851V23.9521H50.9659V25.203H51.311C51.5123 24.8292 51.8358 24.4985 52.2815 24.2109C52.7273 23.9233 53.3312 23.7795 54.0932 23.7795C54.8841 23.7795 55.5167 23.9449 55.9912 24.2756C56.4801 24.5919 56.8468 25.0017 57.0912 25.505H57.4363C57.6807 25.0161 58.033 24.6063 58.4931 24.2756C58.9676 23.9449 59.6362 23.7795 60.4989 23.7795C61.1891 23.7795 61.8002 23.9233 62.3322 24.2109C62.8642 24.4841 63.2884 24.9011 63.6047 25.4618C63.921 26.0082 64.0792 26.6912 64.0792 27.5108V34.5851H61.8577V27.6833C61.8577 27.0363 61.678 26.5402 61.3185 26.1951C60.9734 25.8357 60.4774 25.6559 59.8303 25.6559C59.1401 25.6559 58.5866 25.8788 58.1696 26.3245C57.7526 26.7703 57.5441 27.4101 57.5441 28.2441V34.5851H55.3226V27.6833C55.3226 27.0363 55.1429 26.5402 54.7834 26.1951C54.4383 25.8357 53.9423 25.6559 53.2952 25.6559C52.605 25.6559 52.0515 25.8788 51.6345 26.3245C51.2175 26.7703 51.009 27.4101 51.009 28.2441V34.5851H48.7875ZM68.6823 34.2184C69.4875 34.6642 70.4293 34.887 71.5077 34.887C72.4711 34.887 73.2619 34.7361 73.8802 34.4341C74.4984 34.1322 74.9945 33.7583 75.3684 33.3126C75.7566 32.8668 76.0513 32.4427 76.2526 32.0401L74.4194 31.0911C74.1893 31.5799 73.8586 32.0113 73.4272 32.3851C73.0103 32.759 72.3848 32.9459 71.5508 32.9459C70.6593 32.9459 69.9117 32.6727 69.3078 32.1263C68.7182 31.5656 68.4091 30.8179 68.3803 29.8833H76.5546V29.0421C76.5546 27.9637 76.3389 27.0219 75.9075 26.2167C75.4762 25.4115 74.8723 24.786 74.0958 24.3403C73.3338 23.8802 72.4423 23.6501 71.4214 23.6501C70.3718 23.6501 69.4444 23.8802 68.6391 24.3403C67.8483 24.786 67.23 25.4259 66.7843 26.2598C66.3386 27.0794 66.1157 28.0428 66.1157 29.15V29.4088C66.1157 30.5015 66.3386 31.4649 66.7843 32.2989C67.2444 33.1185 67.8771 33.7583 68.6823 34.2184ZM74.29 28.1794H68.4019C68.5169 27.3742 68.8333 26.7487 69.3509 26.303C69.8829 25.8429 70.5659 25.6128 71.3998 25.6128C72.2338 25.6128 72.9096 25.8429 73.4272 26.303C73.9449 26.7487 74.2324 27.3742 74.29 28.1794Z" fill="white"/>
<path d="M37.5041 24.8794C36.85 24.8794 36.2668 24.7595 35.7544 24.5197C35.2529 24.2798 34.855 23.931 34.5607 23.4731C34.2772 23.0152 34.1355 22.4647 34.1355 21.8215C34.1355 21.3418 34.2227 20.9276 34.3971 20.5787C34.5716 20.2298 34.806 19.9409 35.1003 19.712C35.4055 19.4722 35.7326 19.2977 36.0815 19.1887V18.9761C35.5582 18.8126 35.1167 18.5292 34.7569 18.1258C34.3971 17.7224 34.2173 17.1774 34.2173 16.4906C34.2173 15.8255 34.3644 15.2696 34.6588 14.8226C34.964 14.3647 35.3674 14.0213 35.8689 13.7924C36.3704 13.5525 36.9372 13.4326 37.5695 13.4326H39.4991V14.8553H37.8475C37.3025 14.8553 36.8446 15.0025 36.4739 15.2968C36.1033 15.5803 35.9179 16.0218 35.9179 16.6214C35.9179 17.0356 36.0051 17.3736 36.1796 17.6352C36.3649 17.886 36.5993 18.0768 36.8827 18.2076C37.1771 18.3275 37.4987 18.3875 37.8475 18.3875H39.7608V16.7685H41.4451V18.3875H42.9986V19.8101H41.4451V24.8794H37.5041ZM37.7821 23.4568H39.7608V19.8101H37.7821C37.237 19.8101 36.7737 19.9628 36.3922 20.268C36.0106 20.5623 35.8198 21.0202 35.8198 21.6416C35.8198 22.263 36.016 22.7209 36.4085 23.0152C36.801 23.3096 37.2588 23.4568 37.7821 23.4568Z" fill="url(#paint0_linear_9_170)"/>
<defs>
<linearGradient id="paint0_linear_9_170" x1="38.5671" y1="13.4326" x2="38.5671" y2="24.8794" gradientUnits="userSpaceOnUse">
<stop stop-color="#FF1B47"/>
<stop offset="1" stop-color="#C60027"/>
</linearGradient>
</defs>
</svg>
