<svg width="10" height="10" viewBox="0 0 10 10" fill="none" xmlns="http://www.w3.org/2000/svg">
<path d="M5.54688 6.875C5.54688 6.93716 5.52218 6.99677 5.47823 7.04073C5.43428 7.08468 5.37466 7.10938 5.3125 7.10938C5.16746 7.10938 5.02836 7.05176 4.9258 6.9492C4.82324 6.84664 4.76563 6.70754 4.76563 6.5625L4.76563 5C4.76563 4.97928 4.7574 4.95941 4.74274 4.94476C4.72809 4.93011 4.70822 4.92188 4.6875 4.92188C4.62534 4.92188 4.56573 4.89718 4.52177 4.85323C4.47782 4.80927 4.45313 4.74966 4.45313 4.6875C4.45313 4.62534 4.47782 4.56573 4.52177 4.52177C4.56573 4.47782 4.62534 4.45313 4.6875 4.45313C4.83254 4.45313 4.97164 4.51074 5.0742 4.6133C5.17676 4.71586 5.23438 4.85496 5.23438 5L5.23438 6.5625C5.23438 6.58322 5.24261 6.60309 5.25726 6.61774C5.27191 6.63239 5.29178 6.64063 5.3125 6.64063C5.37466 6.64063 5.43428 6.66532 5.47823 6.70927C5.52218 6.75323 5.54688 6.81284 5.54688 6.875ZM4.84375 3.67188C4.92101 3.67188 4.99653 3.64897 5.06077 3.60604C5.12501 3.56312 5.17508 3.50211 5.20464 3.43074C5.23421 3.35936 5.24194 3.28082 5.22687 3.20504C5.2118 3.12927 5.1746 3.05967 5.11997 3.00504C5.06534 2.95041 4.99573 2.9132 4.91996 2.89813C4.84419 2.88306 4.76564 2.89079 4.69427 2.92036C4.62289 2.94993 4.56188 2.99999 4.51896 3.06423C4.47604 3.12847 4.45313 3.20399 4.45313 3.28125C4.45313 3.38485 4.49428 3.48421 4.56754 3.55746C4.64079 3.63072 4.74015 3.67188 4.84375 3.67188ZM8.98438 5C8.98438 5.78803 8.7507 6.55837 8.31289 7.2136C7.87508 7.86883 7.25281 8.37951 6.52476 8.68108C5.79671 8.98265 4.99558 9.06155 4.22269 8.90782C3.4498 8.75408 2.73985 8.3746 2.18262 7.81738C1.6254 7.26015 1.24592 6.55021 1.09219 5.77731C0.938447 5.00442 1.01735 4.2033 1.31892 3.47525C1.62049 2.7472 2.13117 2.12492 2.7864 1.68711C3.44163 1.2493 4.21197 1.01563 5 1.01563C6.05634 1.01687 7.06906 1.43705 7.81601 2.18399C8.56296 2.93094 8.98314 3.94366 8.98438 5ZM8.51563 5C8.51563 4.30468 8.30944 3.62496 7.92314 3.04682C7.53684 2.46868 6.98777 2.01808 6.34537 1.75199C5.70298 1.4859 4.9961 1.41628 4.31414 1.55193C3.63217 1.68758 3.00575 2.02241 2.51408 2.51408C2.02241 3.00575 1.68758 3.63217 1.55193 4.31414C1.41628 4.9961 1.4859 5.70298 1.75199 6.34537C2.01808 6.98777 2.46868 7.53683 3.04683 7.92314C3.62497 8.30944 4.30468 8.51563 5 8.51563C5.93209 8.51459 6.8257 8.14386 7.48478 7.48478C8.14387 6.8257 8.51459 5.93208 8.51563 5Z" fill="#848484"/>
</svg>
