<svg width="181" height="49" viewBox="0 0 181 49" fill="none" xmlns="http://www.w3.org/2000/svg">
<path d="M26.0667 12V6.17136H28.3172C28.3738 6.17136 28.4373 6.17406 28.5074 6.17945C28.5803 6.18215 28.6531 6.19025 28.726 6.20374C29.0309 6.24961 29.2886 6.3562 29.4991 6.52351C29.7123 6.68811 29.8728 6.89589 29.9808 7.14685C30.0914 7.3978 30.1467 7.67574 30.1467 7.98067C30.1467 8.28289 30.0914 8.55948 29.9808 8.81044C29.8701 9.06139 29.7082 9.27052 29.495 9.43783C29.2846 9.60243 29.0282 9.70767 28.726 9.75354C28.6531 9.76434 28.5803 9.77243 28.5074 9.77783C28.4373 9.78323 28.3738 9.78593 28.3172 9.78593H26.6617V12H26.0667ZM26.6617 9.21925H28.301C28.3496 9.21925 28.4062 9.21655 28.471 9.21116C28.5358 9.20576 28.5992 9.19632 28.6612 9.18282C28.8609 9.13965 29.0242 9.05735 29.151 8.93592C29.2805 8.81449 29.3763 8.67012 29.4384 8.50282C29.5031 8.33551 29.5355 8.16146 29.5355 7.98067C29.5355 7.79987 29.5031 7.62582 29.4384 7.45852C29.3763 7.28851 29.2805 7.1428 29.151 7.02137C29.0242 6.89994 28.8609 6.81764 28.6612 6.77446C28.5992 6.76097 28.5358 6.75287 28.471 6.75018C28.4062 6.74478 28.3496 6.74208 28.301 6.74208H26.6617V9.21925ZM30.9523 12V7.62852H31.4866V8.68091L31.3814 8.54329C31.43 8.41377 31.4934 8.29503 31.5716 8.1871C31.6499 8.07646 31.7349 7.98606 31.8266 7.9159C31.94 7.81606 32.0722 7.7405 32.2233 7.68923C32.3744 7.63527 32.5269 7.60423 32.6807 7.59614C32.8345 7.58534 32.9748 7.59614 33.1016 7.62852V8.1871C32.9424 8.14662 32.7684 8.13718 32.5795 8.15876C32.3906 8.18035 32.2166 8.25591 32.0573 8.38543C31.9116 8.49877 31.8023 8.63504 31.7295 8.79425C31.6566 8.95076 31.6081 9.11806 31.5838 9.29616C31.5595 9.47156 31.5473 9.64561 31.5473 9.81831V12H30.9523ZM35.6402 12.1214C35.2139 12.1214 34.8442 12.027 34.5312 11.8381C34.2208 11.6492 33.9793 11.3834 33.8066 11.0407C33.6339 10.698 33.5476 10.2959 33.5476 9.8345C33.5476 9.35687 33.6326 8.94401 33.8026 8.59591C33.9726 8.24781 34.2114 7.97932 34.519 7.79043C34.8293 7.60153 35.195 7.50709 35.6159 7.50709C36.0477 7.50709 36.416 7.60693 36.721 7.80662C37.0259 8.0036 37.2566 8.28694 37.4131 8.65663C37.5696 9.02631 37.6411 9.46751 37.6276 9.98021H37.0205V9.76974C37.0097 9.20306 36.8869 8.77536 36.6521 8.48662C36.4201 8.19789 36.0801 8.05352 35.6321 8.05352C35.1626 8.05352 34.8024 8.20599 34.5514 8.51091C34.3032 8.81583 34.179 9.25028 34.179 9.81426C34.179 10.3647 34.3032 10.7924 34.5514 11.0974C34.8024 11.3996 35.1572 11.5507 35.6159 11.5507C35.929 11.5507 36.2015 11.4792 36.4336 11.3362C36.6683 11.1905 36.8532 10.9813 36.9881 10.7088L37.5426 10.9233C37.3699 11.3038 37.1149 11.5993 36.7776 11.8098C36.443 12.0175 36.0639 12.1214 35.6402 12.1214ZM33.9685 9.98021V9.48235H37.3079V9.98021H33.9685ZM40.1571 12.1174C39.6444 12.1174 39.2221 12.0067 38.8902 11.7855C38.561 11.5642 38.3586 11.2566 38.283 10.8626L38.8902 10.7614C38.955 11.0097 39.102 11.208 39.3314 11.3564C39.5635 11.5021 39.8495 11.575 40.1895 11.575C40.5214 11.575 40.7831 11.5062 40.9747 11.3686C41.1663 11.2282 41.2621 11.038 41.2621 10.7978C41.2621 10.6629 41.2311 10.5536 41.169 10.47C41.1097 10.3836 40.9869 10.304 40.8007 10.2312C40.6145 10.1583 40.3366 10.072 39.9669 9.97212C39.5702 9.86418 39.2599 9.75624 39.0359 9.64831C38.8119 9.54037 38.6527 9.41624 38.5583 9.27592C38.4638 9.1329 38.4166 8.95885 38.4166 8.75377C38.4166 8.50551 38.4868 8.28829 38.6271 8.1021C38.7674 7.9132 38.9617 7.76749 39.21 7.66495C39.4582 7.55971 39.7469 7.50709 40.0762 7.50709C40.4054 7.50709 40.6995 7.56106 40.9585 7.669C41.2203 7.77424 41.4308 7.92265 41.59 8.11424C41.7492 8.30583 41.8436 8.52845 41.8733 8.7821L41.2662 8.89139C41.2257 8.63504 41.0975 8.43266 40.8816 8.28424C40.6685 8.13313 40.3973 8.05487 40.0681 8.04948C39.7577 8.04138 39.5054 8.10075 39.3111 8.22757C39.1169 8.3517 39.0197 8.51766 39.0197 8.72544C39.0197 8.84147 39.0548 8.94131 39.125 9.02496C39.1951 9.10592 39.3219 9.18282 39.5054 9.25568C39.6916 9.32854 39.9561 9.40814 40.2988 9.49449C40.7008 9.59703 41.0166 9.70497 41.2459 9.81831C41.4753 9.93164 41.6386 10.0652 41.7357 10.219C41.8328 10.3728 41.8814 10.5631 41.8814 10.7897C41.8814 11.2026 41.7276 11.5278 41.42 11.7652C41.1151 12 40.6941 12.1174 40.1571 12.1174ZM44.4103 12.1174C43.8976 12.1174 43.4753 12.0067 43.1434 11.7855C42.8142 11.5642 42.6118 11.2566 42.5363 10.8626L43.1434 10.7614C43.2082 11.0097 43.3552 11.208 43.5846 11.3564C43.8167 11.5021 44.1027 11.575 44.4427 11.575C44.7746 11.575 45.0364 11.5062 45.228 11.3686C45.4195 11.2282 45.5153 11.038 45.5153 10.7978C45.5153 10.6629 45.4843 10.5536 45.4222 10.47C45.3629 10.3836 45.2401 10.304 45.0539 10.2312C44.8677 10.1583 44.5898 10.072 44.2201 9.97212C43.8234 9.86418 43.5131 9.75624 43.2891 9.64831C43.0651 9.54037 42.9059 9.41624 42.8115 9.27592C42.717 9.1329 42.6698 8.95885 42.6698 8.75377C42.6698 8.50551 42.74 8.28829 42.8803 8.1021C43.0206 7.9132 43.2149 7.76749 43.4632 7.66495C43.7114 7.55971 44.0002 7.50709 44.3294 7.50709C44.6586 7.50709 44.9527 7.56106 45.2118 7.669C45.4735 7.77424 45.684 7.92265 45.8432 8.11424C46.0024 8.30583 46.0969 8.52845 46.1265 8.7821L45.5194 8.89139C45.4789 8.63504 45.3507 8.43266 45.1349 8.28424C44.9217 8.13313 44.6505 8.05487 44.3213 8.04948C44.011 8.04138 43.7586 8.10075 43.5644 8.22757C43.3701 8.3517 43.2729 8.51766 43.2729 8.72544C43.2729 8.84147 43.308 8.94131 43.3782 9.02496C43.4483 9.10592 43.5752 9.18282 43.7586 9.25568C43.9448 9.32854 44.2093 9.40814 44.552 9.49449C44.9541 9.59703 45.2698 9.70497 45.4991 9.81831C45.7285 9.93164 45.8918 10.0652 45.9889 10.219C46.0861 10.3728 46.1346 10.5631 46.1346 10.7897C46.1346 11.2026 45.9808 11.5278 45.6732 11.7652C45.3683 12 44.9473 12.1174 44.4103 12.1174Z" fill="#818181"/>
<rect x="54.7336" y="2.23361" width="16.3526" height="16.3526" rx="1.63526" fill="#2E2E2E"/>
<rect x="54.7336" y="2.23361" width="16.3526" height="16.3526" rx="1.63526" stroke="#2E2E2E" stroke-width="0.467218"/>
<path d="M63.8631 12.8269L61.185 9.99777H59.3381V9.40171H61.4117L64.0897 12.2309H65.9367V12.8269H63.8631ZM63.8631 9.99777V9.40171H65.9367V9.99777H63.8631Z" fill="#818181"/>
<rect x="54.7336" y="0.233609" width="16.3526" height="16.3526" rx="1.63526" fill="#181818"/>
<rect x="54.7336" y="0.233609" width="16.3526" height="16.3526" rx="1.63526" stroke="#2E2E2E" stroke-width="0.467218"/>
<path d="M63.8631 10.8269L61.185 7.99777H59.3381V7.40171H61.4117L64.0897 10.2309H65.9367V10.8269H63.8631ZM63.8631 7.99777V7.40171H65.9367V7.99777H63.8631Z" fill="#818181"/>
<rect x="73.4223" y="2.23361" width="16.3526" height="16.3526" rx="1.63526" fill="#2E2E2E"/>
<rect x="73.4223" y="2.23361" width="16.3526" height="16.3526" rx="1.63526" stroke="#2E2E2E" stroke-width="0.467218"/>
<path d="M81.6891 14.0313C81.2817 14.0313 80.9147 13.9639 80.5882 13.829C80.2644 13.6913 79.9959 13.4971 79.7827 13.2461C79.5722 12.9951 79.4346 12.697 79.3698 12.3516L79.977 12.2504C80.0741 12.6282 80.2792 12.925 80.5922 13.1409C80.9052 13.354 81.279 13.4606 81.7134 13.4606C81.9995 13.4606 82.2558 13.4161 82.4825 13.327C82.7092 13.2353 82.8872 13.1058 83.0168 12.9385C83.1463 12.7712 83.2111 12.5728 83.2111 12.3435C83.2111 12.1924 83.1841 12.0642 83.1301 11.9589C83.0761 11.851 83.0046 11.7619 82.9156 11.6918C82.8265 11.6216 82.7294 11.5636 82.6242 11.5177C82.5189 11.4692 82.4164 11.43 82.3165 11.4004L80.8391 10.9592C80.661 10.9079 80.4964 10.8431 80.3453 10.7649C80.1942 10.6839 80.062 10.5881 79.9486 10.4775C79.838 10.3642 79.7517 10.2319 79.6896 10.0808C79.6275 9.92971 79.5965 9.757 79.5965 9.56272C79.5965 9.23351 79.6828 8.94882 79.8555 8.70866C80.0282 8.4685 80.2644 8.28365 80.5639 8.15413C80.8634 8.0246 81.2048 7.96119 81.5879 7.96389C81.9765 7.96389 82.3233 8.0327 82.6282 8.17032C82.9358 8.30794 83.1895 8.50493 83.3892 8.76128C83.5888 9.01493 83.7211 9.31581 83.7858 9.66391L83.1625 9.77724C83.122 9.52359 83.0289 9.30367 82.8832 9.11747C82.7375 8.93128 82.5513 8.78826 82.3246 8.68842C82.1007 8.58588 81.8537 8.53326 81.5839 8.53056C81.3222 8.53056 81.0887 8.57509 80.8837 8.66414C80.6813 8.75049 80.5207 8.86922 80.402 9.02033C80.2833 9.17144 80.2239 9.34414 80.2239 9.53843C80.2239 9.73542 80.2779 9.89328 80.3858 10.012C80.4964 10.1307 80.6313 10.2238 80.7906 10.2913C80.9525 10.3588 81.109 10.4141 81.2601 10.4573L82.4015 10.7932C82.5203 10.8256 82.6592 10.8728 82.8184 10.9349C82.9803 10.9942 83.1369 11.0806 83.288 11.1939C83.4418 11.3046 83.5686 11.4503 83.6684 11.6311C83.7683 11.8119 83.8182 12.0412 83.8182 12.3192C83.8182 12.589 83.7642 12.8305 83.6563 13.0437C83.5511 13.2569 83.4013 13.4363 83.207 13.5821C83.0154 13.7278 82.7901 13.8384 82.5311 13.914C82.2747 13.9922 81.9941 14.0313 81.6891 14.0313Z" fill="#818181"/>
<rect x="73.4223" y="0.233609" width="16.3526" height="16.3526" rx="1.63526" fill="#181818"/>
<rect x="73.4223" y="0.233609" width="16.3526" height="16.3526" rx="1.63526" stroke="#2E2E2E" stroke-width="0.467218"/>
<path d="M81.6891 12.0313C81.2817 12.0313 80.9147 11.9639 80.5882 11.829C80.2644 11.6913 79.9959 11.4971 79.7827 11.2461C79.5722 10.9951 79.4346 10.697 79.3698 10.3516L79.977 10.2504C80.0741 10.6282 80.2792 10.925 80.5922 11.1409C80.9052 11.354 81.279 11.4606 81.7134 11.4606C81.9995 11.4606 82.2558 11.4161 82.4825 11.327C82.7092 11.2353 82.8872 11.1058 83.0168 10.9385C83.1463 10.7712 83.2111 10.5728 83.2111 10.3435C83.2111 10.1924 83.1841 10.0642 83.1301 9.95894C83.0761 9.851 83.0046 9.76195 82.9156 9.69179C82.8265 9.62163 82.7294 9.56361 82.6242 9.51774C82.5189 9.46917 82.4164 9.43004 82.3165 9.40036L80.8391 8.95916C80.661 8.90789 80.4964 8.84313 80.3453 8.76487C80.1942 8.68392 80.062 8.58813 79.9486 8.47749C79.838 8.36416 79.7517 8.23193 79.6896 8.08082C79.6275 7.92971 79.5965 7.757 79.5965 7.56272C79.5965 7.23351 79.6828 6.94882 79.8555 6.70866C80.0282 6.4685 80.2644 6.28365 80.5639 6.15413C80.8634 6.0246 81.2048 5.96119 81.5879 5.96389C81.9765 5.96389 82.3233 6.0327 82.6282 6.17032C82.9358 6.30794 83.1895 6.50493 83.3892 6.76128C83.5888 7.01493 83.7211 7.31581 83.7858 7.66391L83.1625 7.77724C83.122 7.52359 83.0289 7.30367 82.8832 7.11747C82.7375 6.93128 82.5513 6.78826 82.3246 6.68842C82.1007 6.58588 81.8537 6.53326 81.5839 6.53056C81.3222 6.53056 81.0887 6.57509 80.8837 6.66414C80.6813 6.75049 80.5207 6.86922 80.402 7.02033C80.2833 7.17144 80.2239 7.34414 80.2239 7.53843C80.2239 7.73542 80.2779 7.89328 80.3858 8.01201C80.4964 8.13074 80.6313 8.22384 80.7906 8.2913C80.9525 8.35876 81.109 8.41408 81.2601 8.45725L82.4015 8.79321C82.5203 8.82559 82.6592 8.87281 82.8184 8.93488C82.9803 8.99424 83.1369 9.08059 83.288 9.19393C83.4418 9.30456 83.5686 9.45028 83.6684 9.63108C83.7683 9.81187 83.8182 10.0412 83.8182 10.3192C83.8182 10.589 83.7642 10.8305 83.6563 11.0437C83.5511 11.2569 83.4013 11.4363 83.207 11.5821C83.0154 11.7278 82.7901 11.8384 82.5311 11.914C82.2747 11.9922 81.9941 12.0313 81.6891 12.0313Z" fill="#818181"/>
<path d="M98.6961 1.76245H99.6372L95.6219 16.8198H94.6808L98.6961 1.76245Z" fill="#2E2E2E"/>
<rect x="104.543" y="2.23361" width="16.3526" height="16.3526" rx="1.63526" fill="#2E2E2E"/>
<rect x="104.543" y="2.23361" width="16.3526" height="16.3526" rx="1.63526" stroke="#2E2E2E" stroke-width="0.467218"/>
<path d="M107.864 13.4099L109.666 8.17908H110.374L112.176 13.4099H111.62L109.91 8.47695H110.12L108.42 13.4099H107.864ZM108.667 12.1422V11.6409H111.37V12.1422H108.667ZM112.905 13.4099V8.0701H113.439V13.4099H112.905ZM116.664 13.4099C116.443 13.4559 116.225 13.4741 116.01 13.4644C115.797 13.4547 115.605 13.4087 115.436 13.3264C115.269 13.244 115.142 13.1157 115.055 12.9413C114.984 12.796 114.946 12.6495 114.938 12.5018C114.933 12.3516 114.931 12.1809 114.931 11.9896V8.39703H115.461V11.9678C115.461 12.1325 115.463 12.2705 115.465 12.3819C115.47 12.4909 115.495 12.5878 115.541 12.6725C115.628 12.8348 115.767 12.9316 115.955 12.9631C116.147 12.9946 116.383 12.9873 116.664 12.9413V13.4099ZM114.092 9.94449V9.48679H116.664V9.94449H114.092Z" fill="#818181"/>
<rect x="104.543" y="0.233609" width="16.3526" height="16.3526" rx="1.63526" fill="#181818"/>
<rect x="104.543" y="0.233609" width="16.3526" height="16.3526" rx="1.63526" stroke="#2E2E2E" stroke-width="0.467218"/>
<path d="M107.864 11.4099L109.666 6.17908H110.374L112.176 11.4099H111.62L109.91 6.47695H110.12L108.42 11.4099H107.864ZM108.667 10.1422V9.64087H111.37V10.1422H108.667ZM112.905 11.4099V6.0701H113.439V11.4099H112.905ZM116.664 11.4099C116.443 11.4559 116.225 11.4741 116.01 11.4644C115.797 11.4547 115.605 11.4087 115.436 11.3264C115.269 11.244 115.142 11.1157 115.055 10.9413C114.984 10.796 114.946 10.6495 114.938 10.5018C114.933 10.3516 114.931 10.1809 114.931 9.9896V6.39703H115.461V9.9678C115.461 10.1325 115.463 10.2705 115.465 10.3819C115.47 10.4909 115.495 10.5878 115.541 10.6725C115.628 10.8348 115.767 10.9316 115.955 10.9631C116.147 10.9946 116.383 10.9873 116.664 10.9413V11.4099ZM114.092 7.94449V7.48679H116.664V7.94449H114.092Z" fill="#818181"/>
<rect x="123.232" y="2.23361" width="16.3526" height="16.3526" rx="1.63526" fill="#2E2E2E"/>
<rect x="123.232" y="2.23361" width="16.3526" height="16.3526" rx="1.63526" stroke="#2E2E2E" stroke-width="0.467218"/>
<path d="M131.498 14.0313C131.091 14.0313 130.724 13.9639 130.397 13.829C130.074 13.6913 129.805 13.4971 129.592 13.2461C129.381 12.9951 129.244 12.697 129.179 12.3516L129.786 12.2504C129.883 12.6282 130.088 12.925 130.401 13.1409C130.714 13.354 131.088 13.4606 131.523 13.4606C131.809 13.4606 132.065 13.4161 132.292 13.327C132.518 13.2353 132.696 13.1058 132.826 12.9385C132.956 12.7712 133.02 12.5728 133.02 12.3435C133.02 12.1924 132.993 12.0642 132.939 11.9589C132.885 11.851 132.814 11.7619 132.725 11.6918C132.636 11.6216 132.539 11.5636 132.433 11.5177C132.328 11.4692 132.226 11.43 132.126 11.4004L130.648 10.9592C130.47 10.9079 130.306 10.8431 130.155 10.7649C130.003 10.6839 129.871 10.5881 129.758 10.4775C129.647 10.3642 129.561 10.2319 129.499 10.0808C129.437 9.92971 129.406 9.757 129.406 9.56272C129.406 9.23351 129.492 8.94882 129.665 8.70866C129.837 8.4685 130.074 8.28365 130.373 8.15413C130.673 8.0246 131.014 7.96119 131.397 7.96389C131.786 7.96389 132.132 8.0327 132.437 8.17032C132.745 8.30794 132.999 8.50493 133.198 8.76128C133.398 9.01493 133.53 9.31581 133.595 9.66391L132.972 9.77724C132.931 9.52359 132.838 9.30367 132.692 9.11747C132.547 8.93128 132.36 8.78826 132.134 8.68842C131.91 8.58588 131.663 8.53326 131.393 8.53056C131.131 8.53056 130.898 8.57509 130.693 8.66414C130.49 8.75049 130.33 8.86922 130.211 9.02033C130.092 9.17144 130.033 9.34414 130.033 9.53843C130.033 9.73542 130.087 9.89328 130.195 10.012C130.306 10.1307 130.441 10.2238 130.6 10.2913C130.762 10.3588 130.918 10.4141 131.069 10.4573L132.211 10.7932C132.329 10.8256 132.468 10.8728 132.628 10.9349C132.79 10.9942 132.946 11.0806 133.097 11.1939C133.251 11.3046 133.378 11.4503 133.478 11.6311C133.577 11.8119 133.627 12.0412 133.627 12.3192C133.627 12.589 133.573 12.8305 133.466 13.0437C133.36 13.2569 133.211 13.4363 133.016 13.5821C132.825 13.7278 132.599 13.8384 132.34 13.914C132.084 13.9922 131.803 14.0313 131.498 14.0313Z" fill="#818181"/>
<rect x="123.232" y="0.233609" width="16.3526" height="16.3526" rx="1.63526" fill="#181818"/>
<rect x="123.232" y="0.233609" width="16.3526" height="16.3526" rx="1.63526" stroke="#2E2E2E" stroke-width="0.467218"/>
<path d="M131.498 12.0313C131.091 12.0313 130.724 11.9639 130.397 11.829C130.074 11.6913 129.805 11.4971 129.592 11.2461C129.381 10.9951 129.244 10.697 129.179 10.3516L129.786 10.2504C129.883 10.6282 130.088 10.925 130.401 11.1409C130.714 11.354 131.088 11.4606 131.523 11.4606C131.809 11.4606 132.065 11.4161 132.292 11.327C132.518 11.2353 132.696 11.1058 132.826 10.9385C132.956 10.7712 133.02 10.5728 133.02 10.3435C133.02 10.1924 132.993 10.0642 132.939 9.95894C132.885 9.851 132.814 9.76195 132.725 9.69179C132.636 9.62163 132.539 9.56361 132.433 9.51774C132.328 9.46917 132.226 9.43004 132.126 9.40036L130.648 8.95916C130.47 8.90789 130.306 8.84313 130.155 8.76487C130.003 8.68392 129.871 8.58813 129.758 8.47749C129.647 8.36416 129.561 8.23193 129.499 8.08082C129.437 7.92971 129.406 7.757 129.406 7.56272C129.406 7.23351 129.492 6.94882 129.665 6.70866C129.837 6.4685 130.074 6.28365 130.373 6.15413C130.673 6.0246 131.014 5.96119 131.397 5.96389C131.786 5.96389 132.132 6.0327 132.437 6.17032C132.745 6.30794 132.999 6.50493 133.198 6.76128C133.398 7.01493 133.53 7.31581 133.595 7.66391L132.972 7.77724C132.931 7.52359 132.838 7.30367 132.692 7.11747C132.547 6.93128 132.36 6.78826 132.134 6.68842C131.91 6.58588 131.663 6.53326 131.393 6.53056C131.131 6.53056 130.898 6.57509 130.693 6.66414C130.49 6.75049 130.33 6.86922 130.211 7.02033C130.092 7.17144 130.033 7.34414 130.033 7.53843C130.033 7.73542 130.087 7.89328 130.195 8.01201C130.306 8.13074 130.441 8.22384 130.6 8.2913C130.762 8.35876 130.918 8.41408 131.069 8.45725L132.211 8.79321C132.329 8.82559 132.468 8.87281 132.628 8.93488C132.79 8.99424 132.946 9.08059 133.097 9.19393C133.251 9.30456 133.378 9.45028 133.478 9.63108C133.577 9.81187 133.627 10.0412 133.627 10.3192C133.627 10.589 133.573 10.8305 133.466 11.0437C133.36 11.2569 133.211 11.4363 133.016 11.5821C132.825 11.7278 132.599 11.8384 132.34 11.914C132.084 11.9922 131.803 12.0313 131.498 12.0313Z" fill="#818181"/>
<path d="M149.892 12.1214C149.458 12.1214 149.087 12.0229 148.779 11.826C148.471 11.629 148.235 11.3564 148.071 11.0083C147.906 10.6602 147.824 10.2609 147.824 9.81021C147.824 9.35148 147.907 8.94941 148.075 8.60401C148.242 8.25861 148.48 7.99011 148.787 7.79852C149.097 7.60423 149.466 7.50709 149.892 7.50709C150.329 7.50709 150.702 7.60558 151.009 7.80257C151.32 7.99686 151.556 8.26805 151.718 8.61615C151.882 8.96155 151.965 9.35957 151.965 9.81021C151.965 10.2689 151.882 10.6724 151.718 11.0205C151.553 11.3659 151.316 11.6357 151.005 11.83C150.695 12.0243 150.324 12.1214 149.892 12.1214ZM149.892 11.5507C150.378 11.5507 150.739 11.3902 150.977 11.069C151.214 10.7452 151.333 10.3256 151.333 9.81021C151.333 9.28132 151.213 8.86036 150.973 8.54734C150.735 8.23432 150.375 8.07781 149.892 8.07781C149.566 8.07781 149.296 8.15202 149.083 8.30043C148.872 8.44615 148.714 8.64988 148.609 8.91163C148.507 9.17068 148.455 9.47021 148.455 9.81021C148.455 10.3364 148.577 10.7587 148.82 11.0771C149.062 11.3928 149.42 11.5507 149.892 11.5507ZM152.857 12V7.62852H153.392V8.68091L153.287 8.54329C153.335 8.41377 153.399 8.29503 153.477 8.1871C153.555 8.07646 153.64 7.98606 153.732 7.9159C153.845 7.81606 153.977 7.7405 154.128 7.68923C154.28 7.63527 154.432 7.60423 154.586 7.59614C154.74 7.58534 154.88 7.59614 155.007 7.62852V8.1871C154.848 8.14662 154.674 8.13718 154.485 8.15876C154.296 8.18035 154.122 8.25591 153.962 8.38543C153.817 8.49877 153.707 8.63504 153.635 8.79425C153.562 8.95076 153.513 9.11806 153.489 9.29616C153.465 9.47156 153.452 9.64561 153.452 9.81831V12H152.857Z" fill="#818181"/>
<rect x="0.233609" y="30.8237" width="66.746" height="16.3526" rx="1.63526" fill="#2E2E2E"/>
<rect x="0.233609" y="30.8237" width="66.746" height="16.3526" rx="1.63526" stroke="#2E2E2E" stroke-width="0.467218"/>
<path d="M7.93144 42.109C7.56577 42.109 7.23642 42.0484 6.9434 41.9273C6.65279 41.8038 6.41184 41.6295 6.22052 41.4043C6.03163 41.1791 5.90813 40.9115 5.85001 40.6015L6.39489 40.5107C6.48207 40.8497 6.66611 41.1161 6.94703 41.3098C7.22794 41.5011 7.56335 41.5968 7.95324 41.5968C8.20994 41.5968 8.44 41.5568 8.64342 41.4769C8.84684 41.3946 9.00667 41.2783 9.12291 41.1282C9.23915 40.9781 9.29727 40.8001 9.29727 40.5942C9.29727 40.4586 9.27305 40.3436 9.22462 40.2491C9.17619 40.1523 9.11201 40.0723 9.0321 40.0094C8.95218 39.9464 8.865 39.8943 8.77056 39.8532C8.67611 39.8096 8.58409 39.7745 8.49448 39.7478L7.16861 39.3519C7.00878 39.3059 6.86106 39.2478 6.72545 39.1775C6.58983 39.1049 6.47117 39.0189 6.36946 38.9196C6.27017 38.8179 6.19268 38.6992 6.13698 38.5636C6.08128 38.428 6.05343 38.273 6.05343 38.0987C6.05343 37.8032 6.13092 37.5477 6.28591 37.3322C6.4409 37.1167 6.65279 36.9508 6.9216 36.8346C7.19041 36.7183 7.49675 36.6614 7.84063 36.6638C8.18935 36.6638 8.50054 36.7256 8.77419 36.8491C9.05026 36.9726 9.2779 37.1494 9.4571 37.3794C9.63631 37.6071 9.75497 37.8771 9.81309 38.1895L9.25368 38.2912C9.21736 38.0636 9.13381 37.8662 9.00304 37.6991C8.87227 37.532 8.70517 37.4036 8.50175 37.314C8.30075 37.222 8.07917 37.1748 7.837 37.1724C7.60209 37.1724 7.39262 37.2123 7.20857 37.2923C7.02694 37.3697 6.88285 37.4763 6.7763 37.6119C6.66975 37.7475 6.61647 37.9025 6.61647 38.0769C6.61647 38.2537 6.6649 38.3953 6.76177 38.5019C6.86106 38.6084 6.98214 38.692 7.12502 38.7525C7.27032 38.8131 7.41078 38.8627 7.5464 38.9015L8.57077 39.203C8.67732 39.232 8.80204 39.2744 8.94492 39.3301C9.09022 39.3834 9.23067 39.4609 9.36629 39.5626C9.50432 39.6619 9.61814 39.7926 9.70775 39.9549C9.79735 40.1171 9.84215 40.323 9.84215 40.5724C9.84215 40.8146 9.79372 41.0313 9.69685 41.2226C9.6024 41.414 9.468 41.575 9.29364 41.7058C9.1217 41.8365 8.91949 41.9358 8.68701 42.0036C8.45695 42.0739 8.20509 42.109 7.93144 42.109ZM11.7144 42.109C11.419 42.109 11.1708 42.0557 10.9698 41.9491C10.7712 41.8426 10.6223 41.7009 10.523 41.5241C10.4237 41.3474 10.374 41.1548 10.374 40.9466C10.374 40.7335 10.4164 40.5518 10.5012 40.4017C10.5883 40.2491 10.7058 40.1244 10.8535 40.0275C11.0037 39.9307 11.1768 39.8568 11.373 39.806C11.5716 39.7575 11.7907 39.7151 12.0305 39.6788C12.2726 39.6401 12.5087 39.6074 12.7388 39.5807C12.9713 39.5517 13.1747 39.5238 13.3491 39.4972L13.1602 39.6134C13.1674 39.226 13.0924 38.939 12.935 38.7525C12.7775 38.5661 12.5039 38.4728 12.114 38.4728C11.8452 38.4728 11.6176 38.5334 11.4311 38.6544C11.247 38.7755 11.1175 38.9668 11.0424 39.2284L10.523 39.0758C10.6126 38.7247 10.793 38.4522 11.0642 38.2585C11.3354 38.0648 11.6878 37.9679 12.1213 37.9679C12.4797 37.9679 12.7836 38.0357 13.033 38.1713C13.2849 38.3045 13.4629 38.4982 13.567 38.7525C13.6155 38.8663 13.6469 38.9935 13.6615 39.1339C13.676 39.2744 13.6833 39.4173 13.6833 39.5626V42H13.2074V41.0156L13.3454 41.0737C13.2122 41.4103 13.0052 41.667 12.7243 41.8438C12.4434 42.0206 12.1067 42.109 11.7144 42.109ZM11.7762 41.6476C12.0256 41.6476 12.2436 41.6028 12.43 41.5132C12.6165 41.4236 12.7667 41.3013 12.8805 41.1464C12.9943 40.9889 13.0682 40.8122 13.1021 40.616C13.1311 40.4901 13.1469 40.352 13.1493 40.2019C13.1517 40.0493 13.1529 39.9355 13.1529 39.8604L13.3563 39.9658C13.1747 39.99 12.9773 40.0142 12.7642 40.0384C12.5535 40.0627 12.3453 40.0905 12.1394 40.122C11.936 40.1535 11.752 40.191 11.5873 40.2346C11.4759 40.2661 11.3681 40.3109 11.264 40.369C11.1599 40.4247 11.0739 40.4998 11.0061 40.5942C10.9407 40.6887 10.908 40.8061 10.908 40.9466C10.908 41.0604 10.9359 41.1706 10.9916 41.2771C11.0497 41.3837 11.1417 41.4721 11.2676 41.5423C11.396 41.6125 11.5655 41.6476 11.7762 41.6476ZM15.5477 42L14.1238 38.0769H14.665L15.8238 41.3026L16.9753 38.0769H17.5238L16.0998 42H15.5477ZM19.6945 42.109C19.3118 42.109 18.9801 42.0242 18.6991 41.8547C18.4207 41.6852 18.2039 41.4466 18.0489 41.1391C17.8939 40.8315 17.8164 40.4707 17.8164 40.0566C17.8164 39.628 17.8927 39.2574 18.0453 38.945C18.1979 38.6327 18.4122 38.3917 18.6882 38.2222C18.9667 38.0527 19.2949 37.9679 19.6727 37.9679C20.0601 37.9679 20.3907 38.0575 20.6643 38.2367C20.938 38.4135 21.145 38.6678 21.2855 38.9995C21.426 39.3313 21.4901 39.7273 21.478 40.1874H20.9331V39.9985C20.9235 39.4899 20.8133 39.1061 20.6026 38.847C20.3943 38.5879 20.0892 38.4583 19.6872 38.4583C19.2658 38.4583 18.9425 38.5951 18.7173 38.8688C18.4945 39.1424 18.3831 39.5323 18.3831 40.0384C18.3831 40.5325 18.4945 40.9163 18.7173 41.1899C18.9425 41.4612 19.261 41.5968 19.6727 41.5968C19.9536 41.5968 20.1982 41.5326 20.4064 41.4043C20.6171 41.2735 20.783 41.0858 20.9041 40.8412L21.4017 41.0337C21.2468 41.3752 21.0179 41.6404 20.7152 41.8293C20.4149 42.0157 20.0747 42.109 19.6945 42.109ZM18.1942 40.1874V39.7406H21.1911V40.1874H18.1942ZM25.1298 42V37.2814H23.3027V36.7692H27.491V37.2814H25.6638V42H25.1298ZM28.1461 37.3322V36.7328H28.6801V37.3322H28.1461ZM28.1461 42V38.0769H28.6801V42H28.1461ZM34.4478 42L34.4515 39.4245C34.4515 39.1218 34.3667 38.8845 34.1972 38.7126C34.0301 38.5382 33.817 38.451 33.5579 38.451C33.4101 38.451 33.2661 38.4849 33.1256 38.5527C32.9851 38.6205 32.8689 38.7295 32.7769 38.8797C32.6873 39.0298 32.6425 39.226 32.6425 39.4681L32.3264 39.3773C32.3192 39.0964 32.3737 38.8506 32.4899 38.6399C32.6086 38.4292 32.7708 38.2658 32.9767 38.1495C33.1849 38.0309 33.4198 37.9715 33.6814 37.9715C34.0761 37.9715 34.3921 38.0938 34.6295 38.3384C34.8668 38.5806 34.9854 38.9087 34.9854 39.3228L34.9818 42H34.4478ZM29.7655 42V38.0769H30.245V39.0431H30.3031V42H29.7655ZM32.1121 42L32.1158 39.4609C32.1158 39.1485 32.0322 38.9027 31.8651 38.7235C31.7004 38.5418 31.4825 38.451 31.2113 38.451C30.94 38.451 30.7209 38.5443 30.5538 38.7307C30.3867 38.9148 30.3031 39.1606 30.3031 39.4681L29.9835 39.2938C29.9835 39.0419 30.0428 38.8167 30.1615 38.6181C30.2801 38.4171 30.4424 38.2597 30.6482 38.1459C30.8541 38.0297 31.0877 37.9715 31.3493 37.9715C31.5987 37.9715 31.8203 38.0248 32.014 38.1314C32.2102 38.2379 32.364 38.3929 32.4754 38.5963C32.5868 38.7997 32.6425 39.0468 32.6425 39.3374L32.6388 42H32.1121ZM37.5662 42.109C37.1836 42.109 36.8518 42.0242 36.5709 41.8547C36.2924 41.6852 36.0756 41.4466 35.9206 41.1391C35.7657 40.8315 35.6882 40.4707 35.6882 40.0566C35.6882 39.628 35.7644 39.2574 35.917 38.945C36.0696 38.6327 36.2839 38.3917 36.56 38.2222C36.8385 38.0527 37.1666 37.9679 37.5444 37.9679C37.9319 37.9679 38.2624 38.0575 38.5361 38.2367C38.8097 38.4135 39.0168 38.6678 39.1572 38.9995C39.2977 39.3313 39.3619 39.7273 39.3497 40.1874H38.8049V39.9985C38.7952 39.4899 38.685 39.1061 38.4743 38.847C38.266 38.5879 37.9609 38.4583 37.5589 38.4583C37.1375 38.4583 36.8142 38.5951 36.589 38.8688C36.3662 39.1424 36.2548 39.5323 36.2548 40.0384C36.2548 40.5325 36.3662 40.9163 36.589 41.1899C36.8142 41.4612 37.1327 41.5968 37.5444 41.5968C37.8253 41.5968 38.0699 41.5326 38.2782 41.4043C38.4888 41.2735 38.6547 41.0858 38.7758 40.8412L39.2735 41.0337C39.1185 41.3752 38.8896 41.6404 38.5869 41.8293C38.2866 42.0157 37.9464 42.109 37.5662 42.109ZM36.0659 40.1874V39.7406H39.0628V40.1874H36.0659ZM41.6198 42.1053C41.1597 42.1053 40.7807 42.0061 40.4828 41.8075C40.1874 41.6089 40.0057 41.3328 39.9379 40.9793L40.4828 40.8884C40.5409 41.1112 40.6729 41.2892 40.8788 41.4224C41.087 41.5532 41.3437 41.6186 41.6489 41.6186C41.9467 41.6186 42.1816 41.5568 42.3536 41.4333C42.5255 41.3074 42.6115 41.1367 42.6115 40.9211C42.6115 40.8001 42.5836 40.702 42.5279 40.6269C42.4746 40.5494 42.3645 40.478 42.1974 40.4126C42.0303 40.3472 41.7808 40.2697 41.4491 40.1801C41.0931 40.0832 40.8146 39.9864 40.6136 39.8895C40.4126 39.7926 40.2697 39.6812 40.1849 39.5553C40.1002 39.427 40.0578 39.2708 40.0578 39.0867C40.0578 38.8639 40.1208 38.669 40.2467 38.5019C40.3726 38.3324 40.547 38.2016 40.7698 38.1096C40.9926 38.0151 41.2517 37.9679 41.5471 37.9679C41.8426 37.9679 42.1065 38.0163 42.339 38.1132C42.5739 38.2076 42.7628 38.3408 42.9057 38.5128C43.0486 38.6847 43.1333 38.8845 43.16 39.1121L42.6151 39.2102C42.5788 38.9802 42.4637 38.7985 42.27 38.6653C42.0787 38.5297 41.8353 38.4595 41.5399 38.4547C41.2614 38.4474 41.035 38.5007 40.8606 38.6145C40.6862 38.7259 40.5991 38.8748 40.5991 39.0613C40.5991 39.1654 40.6305 39.255 40.6935 39.3301C40.7565 39.4027 40.8703 39.4718 41.035 39.5372C41.2021 39.6025 41.4394 39.674 41.7469 39.7515C42.1078 39.8435 42.3911 39.9404 42.5969 40.0421C42.8028 40.1438 42.9493 40.2637 43.0365 40.4017C43.1237 40.5397 43.1672 40.7105 43.1672 40.9139C43.1672 41.2844 43.0292 41.5762 42.7531 41.7893C42.4795 42 42.1017 42.1053 41.6198 42.1053ZM46.1088 42C45.8884 42.046 45.6705 42.0642 45.4549 42.0545C45.2418 42.0448 45.0505 41.9988 44.881 41.9165C44.7139 41.8341 44.5868 41.7058 44.4996 41.5314C44.4294 41.3861 44.3906 41.2396 44.3833 41.0919C44.3785 40.9417 44.3761 40.771 44.3761 40.5797V36.9871H44.9064V40.5579C44.9064 40.7226 44.9076 40.8606 44.9101 40.972C44.9149 41.081 44.9403 41.1778 44.9863 41.2626C45.0735 41.4249 45.2116 41.5217 45.4005 41.5532C45.5918 41.5847 45.8279 41.5774 46.1088 41.5314V42ZM43.537 38.5346V38.0769H46.1088V38.5346H43.537ZM48.0042 42.109C47.7087 42.109 47.4605 42.0557 47.2595 41.9491C47.0609 41.8426 46.912 41.7009 46.8127 41.5241C46.7134 41.3474 46.6638 41.1548 46.6638 40.9466C46.6638 40.7335 46.7062 40.5518 46.7909 40.4017C46.8781 40.2491 46.9955 40.1244 47.1433 40.0275C47.2934 39.9307 47.4666 39.8568 47.6627 39.806C47.8613 39.7575 48.0805 39.7151 48.3202 39.6788C48.5624 39.6401 48.7985 39.6074 49.0285 39.5807C49.261 39.5517 49.4644 39.5238 49.6388 39.4972L49.4499 39.6134C49.4572 39.226 49.3821 38.939 49.2247 38.7525C49.0673 38.5661 48.7936 38.4728 48.4038 38.4728C48.1349 38.4728 47.9073 38.5334 47.7208 38.6544C47.5368 38.7755 47.4072 38.9668 47.3322 39.2284L46.8127 39.0758C46.9023 38.7247 47.0827 38.4522 47.354 38.2585C47.6252 38.0648 47.9775 37.9679 48.411 37.9679C48.7694 37.9679 49.0733 38.0357 49.3228 38.1713C49.5746 38.3045 49.7526 38.4982 49.8568 38.7525C49.9052 38.8663 49.9367 38.9935 49.9512 39.1339C49.9657 39.2744 49.973 39.4173 49.973 39.5626V42H49.4971V41.0156L49.6352 41.0737C49.502 41.4103 49.2949 41.667 49.014 41.8438C48.7331 42.0206 48.3965 42.109 48.0042 42.109ZM48.0659 41.6476C48.3154 41.6476 48.5333 41.6028 48.7198 41.5132C48.9063 41.4236 49.0564 41.3013 49.1702 41.1464C49.284 40.9889 49.3579 40.8122 49.3918 40.616C49.4209 40.4901 49.4366 40.352 49.439 40.2019C49.4414 40.0493 49.4427 39.9355 49.4427 39.8604L49.6461 39.9658C49.4644 39.99 49.2671 40.0142 49.054 40.0384C48.8433 40.0627 48.635 40.0905 48.4292 40.122C48.2258 40.1535 48.0417 40.191 47.877 40.2346C47.7656 40.2661 47.6579 40.3109 47.5537 40.369C47.4496 40.4247 47.3636 40.4998 47.2958 40.5942C47.2304 40.6887 47.1978 40.8061 47.1978 40.9466C47.1978 41.0604 47.2256 41.1706 47.2813 41.2771C47.3394 41.3837 47.4314 41.4721 47.5574 41.5423C47.6857 41.6125 47.8552 41.6476 48.0659 41.6476ZM55.5973 42L55.601 39.4245C55.601 39.1218 55.5162 38.8845 55.3467 38.7126C55.1796 38.5382 54.9665 38.451 54.7074 38.451C54.5596 38.451 54.4156 38.4849 54.2751 38.5527C54.1346 38.6205 54.0184 38.7295 53.9264 38.8797C53.8368 39.0298 53.792 39.226 53.792 39.4681L53.4759 39.3773C53.4687 39.0964 53.5232 38.8506 53.6394 38.6399C53.7581 38.4292 53.9203 38.2658 54.1262 38.1495C54.3344 38.0309 54.5693 37.9715 54.8309 37.9715C55.2256 37.9715 55.5416 38.0938 55.779 38.3384C56.0163 38.5806 56.135 38.9087 56.135 39.3228L56.1313 42H55.5973ZM50.915 42V38.0769H51.3945V39.0431H51.4526V42H50.915ZM53.2616 42L53.2653 39.4609C53.2653 39.1485 53.1817 38.9027 53.0146 38.7235C52.8499 38.5418 52.632 38.451 52.3608 38.451C52.0895 38.451 51.8704 38.5443 51.7033 38.7307C51.5362 38.9148 51.4526 39.1606 51.4526 39.4681L51.133 39.2938C51.133 39.0419 51.1923 38.8167 51.311 38.6181C51.4296 38.4171 51.5919 38.2597 51.7977 38.1459C52.0036 38.0297 52.2373 37.9715 52.4988 37.9715C52.7482 37.9715 52.9698 38.0248 53.1635 38.1314C53.3597 38.2379 53.5135 38.3929 53.6249 38.5963C53.7363 38.7997 53.792 39.0468 53.792 39.3374L53.7883 42H53.2616ZM58.8387 42.109C58.4779 42.109 58.1727 42.0182 57.9233 41.8365C57.6739 41.6525 57.485 41.4043 57.3566 41.0919C57.2283 40.7771 57.1641 40.4247 57.1641 40.0348C57.1641 39.6376 57.2283 39.2841 57.3566 38.9741C57.4874 38.6617 57.6787 38.4159 57.9306 38.2367C58.1824 38.0575 58.4924 37.9679 58.8605 37.9679C59.2189 37.9679 59.5264 38.0587 59.7831 38.2403C60.0398 38.422 60.236 38.669 60.3716 38.9814C60.5096 39.2938 60.5787 39.6449 60.5787 40.0348C60.5787 40.4271 60.5096 40.7795 60.3716 41.0919C60.2336 41.4043 60.035 41.6525 59.7759 41.8365C59.5168 42.0182 59.2044 42.109 58.8387 42.109ZM57.0733 43.7436V38.0769H57.5528V41.0301H57.6109V43.7436H57.0733ZM58.7842 41.6113C59.0578 41.6113 59.2855 41.5423 59.4671 41.4043C59.6487 41.2662 59.7843 41.0786 59.874 40.8412C59.966 40.6015 60.012 40.3327 60.012 40.0348C60.012 39.7394 59.9672 39.473 59.8776 39.2357C59.788 38.9983 59.6512 38.8106 59.4671 38.6726C59.2855 38.5346 59.0542 38.4656 58.7733 38.4656C58.4996 38.4656 58.272 38.5322 58.0904 38.6653C57.9112 38.7985 57.7768 38.9838 57.6872 39.2211C57.5976 39.456 57.5528 39.7273 57.5528 40.0348C57.5528 40.3375 57.5976 40.6087 57.6872 40.8485C57.7768 41.0858 57.9124 41.2723 58.094 41.4079C58.2756 41.5435 58.5057 41.6113 58.7842 41.6113Z" fill="#818181"/>
<rect x="0.233609" y="28.8237" width="66.746" height="16.3526" rx="1.63526" fill="#181818"/>
<rect x="0.233609" y="28.8237" width="66.746" height="16.3526" rx="1.63526" stroke="#2E2E2E" stroke-width="0.467218"/>
<path d="M7.93144 40.109C7.56577 40.109 7.23642 40.0484 6.9434 39.9273C6.65279 39.8038 6.41184 39.6295 6.22052 39.4043C6.03163 39.1791 5.90813 38.9115 5.85001 38.6015L6.39489 38.5107C6.48207 38.8497 6.66611 39.1161 6.94703 39.3098C7.22794 39.5011 7.56335 39.5968 7.95324 39.5968C8.20994 39.5968 8.44 39.5568 8.64342 39.4769C8.84684 39.3946 9.00667 39.2783 9.12291 39.1282C9.23915 38.9781 9.29727 38.8001 9.29727 38.5942C9.29727 38.4586 9.27305 38.3436 9.22462 38.2491C9.17619 38.1523 9.11201 38.0723 9.0321 38.0094C8.95218 37.9464 8.865 37.8943 8.77056 37.8532C8.67611 37.8096 8.58409 37.7745 8.49448 37.7478L7.16861 37.3519C7.00878 37.3059 6.86106 37.2478 6.72545 37.1775C6.58983 37.1049 6.47117 37.0189 6.36946 36.9196C6.27017 36.8179 6.19268 36.6992 6.13698 36.5636C6.08128 36.428 6.05343 36.273 6.05343 36.0987C6.05343 35.8032 6.13092 35.5477 6.28591 35.3322C6.4409 35.1167 6.65279 34.9508 6.9216 34.8346C7.19041 34.7183 7.49675 34.6614 7.84063 34.6638C8.18935 34.6638 8.50054 34.7256 8.77419 34.8491C9.05026 34.9726 9.2779 35.1494 9.4571 35.3794C9.63631 35.6071 9.75497 35.8771 9.81309 36.1895L9.25368 36.2912C9.21736 36.0636 9.13381 35.8662 9.00304 35.6991C8.87227 35.532 8.70517 35.4036 8.50175 35.314C8.30075 35.222 8.07917 35.1748 7.837 35.1724C7.60209 35.1724 7.39262 35.2123 7.20857 35.2923C7.02694 35.3697 6.88285 35.4763 6.7763 35.6119C6.66975 35.7475 6.61647 35.9025 6.61647 36.0769C6.61647 36.2537 6.6649 36.3953 6.76177 36.5019C6.86106 36.6084 6.98214 36.692 7.12502 36.7525C7.27032 36.8131 7.41078 36.8627 7.5464 36.9015L8.57077 37.203C8.67732 37.232 8.80204 37.2744 8.94492 37.3301C9.09022 37.3834 9.23067 37.4609 9.36629 37.5626C9.50432 37.6619 9.61814 37.7926 9.70775 37.9549C9.79735 38.1171 9.84215 38.323 9.84215 38.5724C9.84215 38.8146 9.79372 39.0313 9.69685 39.2226C9.6024 39.414 9.468 39.575 9.29364 39.7058C9.1217 39.8365 8.91949 39.9358 8.68701 40.0036C8.45695 40.0739 8.20509 40.109 7.93144 40.109ZM11.7144 40.109C11.419 40.109 11.1708 40.0557 10.9698 39.9491C10.7712 39.8426 10.6223 39.7009 10.523 39.5241C10.4237 39.3474 10.374 39.1548 10.374 38.9466C10.374 38.7335 10.4164 38.5518 10.5012 38.4017C10.5883 38.2491 10.7058 38.1244 10.8535 38.0275C11.0037 37.9307 11.1768 37.8568 11.373 37.806C11.5716 37.7575 11.7907 37.7151 12.0305 37.6788C12.2726 37.6401 12.5087 37.6074 12.7388 37.5807C12.9713 37.5517 13.1747 37.5238 13.3491 37.4972L13.1602 37.6134C13.1674 37.226 13.0924 36.939 12.935 36.7525C12.7775 36.5661 12.5039 36.4728 12.114 36.4728C11.8452 36.4728 11.6176 36.5334 11.4311 36.6544C11.247 36.7755 11.1175 36.9668 11.0424 37.2284L10.523 37.0758C10.6126 36.7247 10.793 36.4522 11.0642 36.2585C11.3354 36.0648 11.6878 35.9679 12.1213 35.9679C12.4797 35.9679 12.7836 36.0357 13.033 36.1713C13.2849 36.3045 13.4629 36.4982 13.567 36.7525C13.6155 36.8663 13.6469 36.9935 13.6615 37.1339C13.676 37.2744 13.6833 37.4173 13.6833 37.5626V40H13.2074V39.0156L13.3454 39.0737C13.2122 39.4103 13.0052 39.667 12.7243 39.8438C12.4434 40.0206 12.1067 40.109 11.7144 40.109ZM11.7762 39.6476C12.0256 39.6476 12.2436 39.6028 12.43 39.5132C12.6165 39.4236 12.7667 39.3013 12.8805 39.1464C12.9943 38.9889 13.0682 38.8122 13.1021 38.616C13.1311 38.4901 13.1469 38.352 13.1493 38.2019C13.1517 38.0493 13.1529 37.9355 13.1529 37.8604L13.3563 37.9658C13.1747 37.99 12.9773 38.0142 12.7642 38.0384C12.5535 38.0627 12.3453 38.0905 12.1394 38.122C11.936 38.1535 11.752 38.191 11.5873 38.2346C11.4759 38.2661 11.3681 38.3109 11.264 38.369C11.1599 38.4247 11.0739 38.4998 11.0061 38.5942C10.9407 38.6887 10.908 38.8061 10.908 38.9466C10.908 39.0604 10.9359 39.1706 10.9916 39.2771C11.0497 39.3837 11.1417 39.4721 11.2676 39.5423C11.396 39.6125 11.5655 39.6476 11.7762 39.6476ZM15.5477 40L14.1238 36.0769H14.665L15.8238 39.3026L16.9753 36.0769H17.5238L16.0998 40H15.5477ZM19.6945 40.109C19.3118 40.109 18.9801 40.0242 18.6991 39.8547C18.4207 39.6852 18.2039 39.4466 18.0489 39.1391C17.8939 38.8315 17.8164 38.4707 17.8164 38.0566C17.8164 37.628 17.8927 37.2574 18.0453 36.945C18.1979 36.6327 18.4122 36.3917 18.6882 36.2222C18.9667 36.0527 19.2949 35.9679 19.6727 35.9679C20.0601 35.9679 20.3907 36.0575 20.6643 36.2367C20.938 36.4135 21.145 36.6678 21.2855 36.9995C21.426 37.3313 21.4901 37.7273 21.478 38.1874H20.9331V37.9985C20.9235 37.4899 20.8133 37.1061 20.6026 36.847C20.3943 36.5879 20.0892 36.4583 19.6872 36.4583C19.2658 36.4583 18.9425 36.5951 18.7173 36.8688C18.4945 37.1424 18.3831 37.5323 18.3831 38.0384C18.3831 38.5325 18.4945 38.9163 18.7173 39.1899C18.9425 39.4612 19.261 39.5968 19.6727 39.5968C19.9536 39.5968 20.1982 39.5326 20.4064 39.4043C20.6171 39.2735 20.783 39.0858 20.9041 38.8412L21.4017 39.0337C21.2468 39.3752 21.0179 39.6404 20.7152 39.8293C20.4149 40.0157 20.0747 40.109 19.6945 40.109ZM18.1942 38.1874V37.7406H21.1911V38.1874H18.1942ZM25.1298 40V35.2814H23.3027V34.7692H27.491V35.2814H25.6638V40H25.1298ZM28.1461 35.3322V34.7328H28.6801V35.3322H28.1461ZM28.1461 40V36.0769H28.6801V40H28.1461ZM34.4478 40L34.4515 37.4245C34.4515 37.1218 34.3667 36.8845 34.1972 36.7126C34.0301 36.5382 33.817 36.451 33.5579 36.451C33.4101 36.451 33.2661 36.4849 33.1256 36.5527C32.9851 36.6205 32.8689 36.7295 32.7769 36.8797C32.6873 37.0298 32.6425 37.226 32.6425 37.4681L32.3264 37.3773C32.3192 37.0964 32.3737 36.8506 32.4899 36.6399C32.6086 36.4292 32.7708 36.2658 32.9767 36.1495C33.1849 36.0309 33.4198 35.9715 33.6814 35.9715C34.0761 35.9715 34.3921 36.0938 34.6295 36.3384C34.8668 36.5806 34.9854 36.9087 34.9854 37.3228L34.9818 40H34.4478ZM29.7655 40V36.0769H30.245V37.0431H30.3031V40H29.7655ZM32.1121 40L32.1158 37.4609C32.1158 37.1485 32.0322 36.9027 31.8651 36.7235C31.7004 36.5418 31.4825 36.451 31.2113 36.451C30.94 36.451 30.7209 36.5443 30.5538 36.7307C30.3867 36.9148 30.3031 37.1606 30.3031 37.4681L29.9835 37.2938C29.9835 37.0419 30.0428 36.8167 30.1615 36.6181C30.2801 36.4171 30.4424 36.2597 30.6482 36.1459C30.8541 36.0297 31.0877 35.9715 31.3493 35.9715C31.5987 35.9715 31.8203 36.0248 32.014 36.1314C32.2102 36.2379 32.364 36.3929 32.4754 36.5963C32.5868 36.7997 32.6425 37.0468 32.6425 37.3374L32.6388 40H32.1121ZM37.5662 40.109C37.1836 40.109 36.8518 40.0242 36.5709 39.8547C36.2924 39.6852 36.0756 39.4466 35.9206 39.1391C35.7657 38.8315 35.6882 38.4707 35.6882 38.0566C35.6882 37.628 35.7644 37.2574 35.917 36.945C36.0696 36.6327 36.2839 36.3917 36.56 36.2222C36.8385 36.0527 37.1666 35.9679 37.5444 35.9679C37.9319 35.9679 38.2624 36.0575 38.5361 36.2367C38.8097 36.4135 39.0168 36.6678 39.1572 36.9995C39.2977 37.3313 39.3619 37.7273 39.3497 38.1874H38.8049V37.9985C38.7952 37.4899 38.685 37.1061 38.4743 36.847C38.266 36.5879 37.9609 36.4583 37.5589 36.4583C37.1375 36.4583 36.8142 36.5951 36.589 36.8688C36.3662 37.1424 36.2548 37.5323 36.2548 38.0384C36.2548 38.5325 36.3662 38.9163 36.589 39.1899C36.8142 39.4612 37.1327 39.5968 37.5444 39.5968C37.8253 39.5968 38.0699 39.5326 38.2782 39.4043C38.4888 39.2735 38.6547 39.0858 38.7758 38.8412L39.2735 39.0337C39.1185 39.3752 38.8896 39.6404 38.5869 39.8293C38.2866 40.0157 37.9464 40.109 37.5662 40.109ZM36.0659 38.1874V37.7406H39.0628V38.1874H36.0659ZM41.6198 40.1053C41.1597 40.1053 40.7807 40.0061 40.4828 39.8075C40.1874 39.6089 40.0057 39.3328 39.9379 38.9793L40.4828 38.8884C40.5409 39.1112 40.6729 39.2892 40.8788 39.4224C41.087 39.5532 41.3437 39.6186 41.6489 39.6186C41.9467 39.6186 42.1816 39.5568 42.3536 39.4333C42.5255 39.3074 42.6115 39.1367 42.6115 38.9211C42.6115 38.8001 42.5836 38.702 42.5279 38.6269C42.4746 38.5494 42.3645 38.478 42.1974 38.4126C42.0303 38.3472 41.7808 38.2697 41.4491 38.1801C41.0931 38.0832 40.8146 37.9864 40.6136 37.8895C40.4126 37.7926 40.2697 37.6812 40.1849 37.5553C40.1002 37.427 40.0578 37.2708 40.0578 37.0867C40.0578 36.8639 40.1208 36.669 40.2467 36.5019C40.3726 36.3324 40.547 36.2016 40.7698 36.1096C40.9926 36.0151 41.2517 35.9679 41.5471 35.9679C41.8426 35.9679 42.1065 36.0163 42.339 36.1132C42.5739 36.2076 42.7628 36.3408 42.9057 36.5128C43.0486 36.6847 43.1333 36.8845 43.16 37.1121L42.6151 37.2102C42.5788 36.9802 42.4637 36.7985 42.27 36.6653C42.0787 36.5297 41.8353 36.4595 41.5399 36.4547C41.2614 36.4474 41.035 36.5007 40.8606 36.6145C40.6862 36.7259 40.5991 36.8748 40.5991 37.0613C40.5991 37.1654 40.6305 37.255 40.6935 37.3301C40.7565 37.4027 40.8703 37.4718 41.035 37.5372C41.2021 37.6025 41.4394 37.674 41.7469 37.7515C42.1078 37.8435 42.3911 37.9404 42.5969 38.0421C42.8028 38.1438 42.9493 38.2637 43.0365 38.4017C43.1237 38.5397 43.1672 38.7105 43.1672 38.9139C43.1672 39.2844 43.0292 39.5762 42.7531 39.7893C42.4795 40 42.1017 40.1053 41.6198 40.1053ZM46.1088 40C45.8884 40.046 45.6705 40.0642 45.4549 40.0545C45.2418 40.0448 45.0505 39.9988 44.881 39.9165C44.7139 39.8341 44.5868 39.7058 44.4996 39.5314C44.4294 39.3861 44.3906 39.2396 44.3833 39.0919C44.3785 38.9417 44.3761 38.771 44.3761 38.5797V34.9871H44.9064V38.5579C44.9064 38.7226 44.9076 38.8606 44.9101 38.972C44.9149 39.081 44.9403 39.1778 44.9863 39.2626C45.0735 39.4249 45.2116 39.5217 45.4005 39.5532C45.5918 39.5847 45.8279 39.5774 46.1088 39.5314V40ZM43.537 36.5346V36.0769H46.1088V36.5346H43.537ZM48.0042 40.109C47.7087 40.109 47.4605 40.0557 47.2595 39.9491C47.0609 39.8426 46.912 39.7009 46.8127 39.5241C46.7134 39.3474 46.6638 39.1548 46.6638 38.9466C46.6638 38.7335 46.7062 38.5518 46.7909 38.4017C46.8781 38.2491 46.9955 38.1244 47.1433 38.0275C47.2934 37.9307 47.4666 37.8568 47.6627 37.806C47.8613 37.7575 48.0805 37.7151 48.3202 37.6788C48.5624 37.6401 48.7985 37.6074 49.0285 37.5807C49.261 37.5517 49.4644 37.5238 49.6388 37.4972L49.4499 37.6134C49.4572 37.226 49.3821 36.939 49.2247 36.7525C49.0673 36.5661 48.7936 36.4728 48.4038 36.4728C48.1349 36.4728 47.9073 36.5334 47.7208 36.6544C47.5368 36.7755 47.4072 36.9668 47.3322 37.2284L46.8127 37.0758C46.9023 36.7247 47.0827 36.4522 47.354 36.2585C47.6252 36.0648 47.9775 35.9679 48.411 35.9679C48.7694 35.9679 49.0733 36.0357 49.3228 36.1713C49.5746 36.3045 49.7526 36.4982 49.8568 36.7525C49.9052 36.8663 49.9367 36.9935 49.9512 37.1339C49.9657 37.2744 49.973 37.4173 49.973 37.5626V40H49.4971V39.0156L49.6352 39.0737C49.502 39.4103 49.2949 39.667 49.014 39.8438C48.7331 40.0206 48.3965 40.109 48.0042 40.109ZM48.0659 39.6476C48.3154 39.6476 48.5333 39.6028 48.7198 39.5132C48.9063 39.4236 49.0564 39.3013 49.1702 39.1464C49.284 38.9889 49.3579 38.8122 49.3918 38.616C49.4209 38.4901 49.4366 38.352 49.439 38.2019C49.4414 38.0493 49.4427 37.9355 49.4427 37.8604L49.6461 37.9658C49.4644 37.99 49.2671 38.0142 49.054 38.0384C48.8433 38.0627 48.635 38.0905 48.4292 38.122C48.2258 38.1535 48.0417 38.191 47.877 38.2346C47.7656 38.2661 47.6579 38.3109 47.5537 38.369C47.4496 38.4247 47.3636 38.4998 47.2958 38.5942C47.2304 38.6887 47.1978 38.8061 47.1978 38.9466C47.1978 39.0604 47.2256 39.1706 47.2813 39.2771C47.3394 39.3837 47.4314 39.4721 47.5574 39.5423C47.6857 39.6125 47.8552 39.6476 48.0659 39.6476ZM55.5973 40L55.601 37.4245C55.601 37.1218 55.5162 36.8845 55.3467 36.7126C55.1796 36.5382 54.9665 36.451 54.7074 36.451C54.5596 36.451 54.4156 36.4849 54.2751 36.5527C54.1346 36.6205 54.0184 36.7295 53.9264 36.8797C53.8368 37.0298 53.792 37.226 53.792 37.4681L53.4759 37.3773C53.4687 37.0964 53.5232 36.8506 53.6394 36.6399C53.7581 36.4292 53.9203 36.2658 54.1262 36.1495C54.3344 36.0309 54.5693 35.9715 54.8309 35.9715C55.2256 35.9715 55.5416 36.0938 55.779 36.3384C56.0163 36.5806 56.135 36.9087 56.135 37.3228L56.1313 40H55.5973ZM50.915 40V36.0769H51.3945V37.0431H51.4526V40H50.915ZM53.2616 40L53.2653 37.4609C53.2653 37.1485 53.1817 36.9027 53.0146 36.7235C52.8499 36.5418 52.632 36.451 52.3608 36.451C52.0895 36.451 51.8704 36.5443 51.7033 36.7307C51.5362 36.9148 51.4526 37.1606 51.4526 37.4681L51.133 37.2938C51.133 37.0419 51.1923 36.8167 51.311 36.6181C51.4296 36.4171 51.5919 36.2597 51.7977 36.1459C52.0036 36.0297 52.2373 35.9715 52.4988 35.9715C52.7482 35.9715 52.9698 36.0248 53.1635 36.1314C53.3597 36.2379 53.5135 36.3929 53.6249 36.5963C53.7363 36.7997 53.792 37.0468 53.792 37.3374L53.7883 40H53.2616ZM58.8387 40.109C58.4779 40.109 58.1727 40.0182 57.9233 39.8365C57.6739 39.6525 57.485 39.4043 57.3566 39.0919C57.2283 38.7771 57.1641 38.4247 57.1641 38.0348C57.1641 37.6376 57.2283 37.2841 57.3566 36.9741C57.4874 36.6617 57.6787 36.4159 57.9306 36.2367C58.1824 36.0575 58.4924 35.9679 58.8605 35.9679C59.2189 35.9679 59.5264 36.0587 59.7831 36.2403C60.0398 36.422 60.236 36.669 60.3716 36.9814C60.5096 37.2938 60.5787 37.6449 60.5787 38.0348C60.5787 38.4271 60.5096 38.7795 60.3716 39.0919C60.2336 39.4043 60.035 39.6525 59.7759 39.8365C59.5168 40.0182 59.2044 40.109 58.8387 40.109ZM57.0733 41.7436V36.0769H57.5528V39.0301H57.6109V41.7436H57.0733ZM58.7842 39.6113C59.0578 39.6113 59.2855 39.5423 59.4671 39.4043C59.6487 39.2662 59.7843 39.0786 59.874 38.8412C59.966 38.6015 60.012 38.3327 60.012 38.0348C60.012 37.7394 59.9672 37.473 59.8776 37.2357C59.788 36.9983 59.6512 36.8106 59.4671 36.6726C59.2855 36.5346 59.0542 36.4656 58.7733 36.4656C58.4996 36.4656 58.272 36.5322 58.0904 36.6653C57.9112 36.7985 57.7768 36.9838 57.6872 37.2211C57.5976 37.456 57.5528 37.7273 57.5528 38.0348C57.5528 38.3375 57.5976 38.6087 57.6872 38.8485C57.7768 39.0858 57.9124 39.2723 58.094 39.4079C58.2756 39.5435 58.5057 39.6113 58.7842 39.6113Z" fill="#818181"/>
<path d="M76.743 36.1214C76.341 36.1214 76.001 36.0202 75.723 35.8179C75.4451 35.6128 75.2346 35.3362 75.0916 34.9881C74.9486 34.6373 74.8771 34.2447 74.8771 33.8102C74.8771 33.3677 74.9486 32.9737 75.0916 32.6283C75.2373 32.2802 75.4505 32.0063 75.7311 31.8066C76.0118 31.6069 76.3572 31.5071 76.7673 31.5071C77.1667 31.5071 77.5094 31.6083 77.7954 31.8107C78.0815 32.013 78.3001 32.2883 78.4512 32.6364C78.605 32.9845 78.6819 33.3758 78.6819 33.8102C78.6819 34.2474 78.605 34.64 78.4512 34.9881C78.2974 35.3362 78.0761 35.6128 77.7873 35.8179C77.4986 36.0202 77.1505 36.1214 76.743 36.1214ZM74.7759 36V30.1714H75.3749V32.7092H75.3102V36H74.7759ZM76.6823 35.5669C76.9873 35.5669 77.2409 35.49 77.4433 35.3362C77.6457 35.1824 77.7968 34.9732 77.8966 34.7088C77.9992 34.4416 78.0504 34.1421 78.0504 33.8102C78.0504 33.481 78.0005 33.1842 77.9007 32.9197C77.8008 32.6553 77.6484 32.4461 77.4433 32.2923C77.2409 32.1385 76.9832 32.0616 76.6702 32.0616C76.3653 32.0616 76.1116 32.1358 75.9092 32.2842C75.7095 32.4327 75.5598 32.6391 75.4599 32.9035C75.3601 33.1653 75.3102 33.4675 75.3102 33.8102C75.3102 34.1475 75.3601 34.4497 75.4599 34.7169C75.5598 34.9813 75.7109 35.1891 75.9133 35.3402C76.1157 35.4913 76.372 35.5669 76.6823 35.5669ZM81.4043 36.1093C81.1426 36.1093 80.9132 36.0688 80.7162 35.9879C80.5219 35.9069 80.356 35.7976 80.2184 35.66C80.0834 35.5224 79.9741 35.3659 79.8905 35.1905C79.8068 35.0124 79.7461 34.8248 79.7083 34.6278C79.6706 34.4282 79.6517 34.2298 79.6517 34.0328V31.6285H80.2507V33.8588C80.2507 34.0989 80.2737 34.3216 80.3195 34.5266C80.3654 34.7317 80.4383 34.9112 80.5381 35.065C80.6407 35.2161 80.7715 35.3335 80.9307 35.4171C81.0926 35.5008 81.2883 35.5426 81.5177 35.5426C81.7281 35.5426 81.913 35.5062 82.0722 35.4333C82.2341 35.3605 82.369 35.2566 82.4769 35.1217C82.5876 34.984 82.6712 34.8181 82.7279 34.6238C82.7846 34.4268 82.8129 34.2055 82.8129 33.96L83.2339 34.0531C83.2339 34.501 83.1556 34.8774 82.9991 35.1824C82.8426 35.4873 82.6267 35.718 82.3515 35.8745C82.0762 36.031 81.7605 36.1093 81.4043 36.1093ZM82.8736 36V34.9233H82.8129V31.6285H83.4079V36H82.8736ZM87.0812 36C86.8356 36.0513 86.5928 36.0715 86.3526 36.0607C86.1151 36.0499 85.902 35.9987 85.7131 35.9069C85.5269 35.8152 85.3852 35.6721 85.2881 35.4779C85.2098 35.3159 85.1666 35.1527 85.1585 34.9881C85.1531 34.8208 85.1504 34.6305 85.1504 34.4174V30.4142H85.7414V34.3931C85.7414 34.5766 85.7427 34.7304 85.7454 34.8545C85.7508 34.9759 85.7792 35.0839 85.8304 35.1783C85.9276 35.3591 86.0814 35.4671 86.2919 35.5021C86.5051 35.5372 86.7682 35.5291 87.0812 35.4779V36ZM84.2154 32.1385V31.6285H87.0812V32.1385H84.2154ZM89.8376 36C89.5921 36.0513 89.3492 36.0715 89.1091 36.0607C88.8716 36.0499 88.6584 35.9987 88.4695 35.9069C88.2833 35.8152 88.1417 35.6721 88.0445 35.4779C87.9663 35.3159 87.9231 35.1527 87.915 34.9881C87.9096 34.8208 87.9069 34.6305 87.9069 34.4174V30.4142H88.4979V34.3931C88.4979 34.5766 88.4992 34.7304 88.5019 34.8545C88.5073 34.9759 88.5356 35.0839 88.5869 35.1783C88.684 35.3591 88.8379 35.4671 89.0483 35.5021C89.2615 35.5372 89.5246 35.5291 89.8376 35.4779V36ZM86.9719 32.1385V31.6285H89.8376V32.1385H86.9719ZM92.6889 36.1214C92.2544 36.1214 91.8834 36.0229 91.5758 35.826C91.2682 35.629 91.0321 35.3564 90.8674 35.0083C90.7028 34.6602 90.6205 34.2609 90.6205 33.8102C90.6205 33.3515 90.7042 32.9494 90.8715 32.604C91.0388 32.2586 91.2763 31.9901 91.5839 31.7985C91.8942 31.6042 92.2625 31.5071 92.6889 31.5071C93.126 31.5071 93.4984 31.6056 93.8061 31.8026C94.1164 31.9969 94.3525 32.2681 94.5144 32.6161C94.679 32.9616 94.7613 33.3596 94.7613 33.8102C94.7613 34.2689 94.679 34.6724 94.5144 35.0205C94.3498 35.3659 94.1123 35.6357 93.802 35.83C93.4917 36.0243 93.1206 36.1214 92.6889 36.1214ZM92.6889 35.5507C93.1746 35.5507 93.5362 35.3902 93.7737 35.069C94.0111 34.7452 94.1299 34.3256 94.1299 33.8102C94.1299 33.2813 94.0098 32.8604 93.7696 32.5473C93.5322 32.2343 93.1719 32.0778 92.6889 32.0778C92.3624 32.0778 92.0925 32.152 91.8794 32.3004C91.6689 32.4461 91.511 32.6499 91.4058 32.9116C91.3032 33.1707 91.252 33.4702 91.252 33.8102C91.252 34.3364 91.3734 34.7587 91.6163 35.0771C91.8591 35.3928 92.2167 35.5507 92.6889 35.5507ZM98.9733 36V33.7697C98.9733 33.5269 98.9503 33.3043 98.9045 33.1019C98.8586 32.8968 98.7844 32.7187 98.6819 32.5676C98.582 32.4138 98.4511 32.295 98.2892 32.2114C98.13 32.1277 97.9357 32.0859 97.7064 32.0859C97.4959 32.0859 97.3097 32.1223 97.1478 32.1952C96.9886 32.2681 96.8537 32.3733 96.743 32.5109C96.6351 32.6458 96.5528 32.8104 96.4961 33.0047C96.4394 33.199 96.4111 33.4203 96.4111 33.6685L95.9902 33.5754C95.9902 33.1275 96.0684 32.7511 96.2249 32.4461C96.3814 32.1412 96.5973 31.9105 96.8725 31.754C97.1478 31.5975 97.4635 31.5192 97.8197 31.5192C98.0814 31.5192 98.3095 31.5597 98.5038 31.6407C98.7007 31.7216 98.8667 31.8309 99.0016 31.9685C99.1392 32.1061 99.2499 32.264 99.3335 32.4421C99.4172 32.6175 99.4779 32.805 99.5157 33.0047C99.5534 33.2017 99.5723 33.3987 99.5723 33.5957V36H98.9733ZM95.8121 36V31.6285H96.3504V32.7052H96.4111V36H95.8121ZM103.818 36.1214C103.489 36.1214 103.212 36.0621 102.988 35.9433C102.767 35.8246 102.601 35.6667 102.49 35.4698C102.38 35.2728 102.324 35.0582 102.324 34.8262C102.324 34.5887 102.372 34.3863 102.466 34.219C102.563 34.049 102.694 33.9101 102.859 33.8021C103.026 33.6942 103.219 33.6119 103.437 33.5552C103.659 33.5012 103.903 33.454 104.17 33.4135C104.44 33.3704 104.703 33.3339 104.959 33.3043C105.218 33.2719 105.445 33.2408 105.639 33.2112L105.429 33.3407C105.437 32.9089 105.353 32.5892 105.178 32.3814C105.003 32.1736 104.698 32.0697 104.263 32.0697C103.964 32.0697 103.71 32.1372 103.502 32.2721C103.297 32.407 103.153 32.6202 103.069 32.9116L102.49 32.7416C102.59 32.3504 102.791 32.0468 103.093 31.8309C103.396 31.615 103.788 31.5071 104.271 31.5071C104.671 31.5071 105.009 31.5826 105.287 31.7338C105.568 31.8822 105.766 32.098 105.882 32.3814C105.936 32.5082 105.971 32.6499 105.987 32.8064C106.004 32.9629 106.012 33.1221 106.012 33.284V36H105.481V34.9031L105.635 34.9678C105.487 35.3429 105.256 35.629 104.943 35.826C104.63 36.0229 104.255 36.1214 103.818 36.1214ZM103.887 35.6074C104.165 35.6074 104.408 35.5575 104.615 35.4576C104.823 35.3578 104.99 35.2215 105.117 35.0488C105.244 34.8734 105.326 34.6764 105.364 34.4578C105.396 34.3175 105.414 34.1637 105.417 33.9964C105.419 33.8264 105.421 33.6996 105.421 33.6159L105.647 33.7333C105.445 33.7603 105.225 33.7873 104.988 33.8143C104.753 33.8412 104.521 33.8723 104.291 33.9074C104.065 33.9424 103.86 33.9843 103.676 34.0328C103.552 34.0679 103.432 34.1178 103.316 34.1826C103.2 34.2447 103.104 34.3283 103.029 34.4336C102.956 34.5388 102.919 34.6697 102.919 34.8262C102.919 34.953 102.95 35.0758 103.012 35.1945C103.077 35.3132 103.18 35.4117 103.32 35.49C103.463 35.5682 103.652 35.6074 103.887 35.6074ZM109.607 36C109.362 36.0513 109.119 36.0715 108.879 36.0607C108.641 36.0499 108.428 35.9987 108.239 35.9069C108.053 35.8152 107.911 35.6721 107.814 35.4779C107.736 35.3159 107.693 35.1527 107.685 34.9881C107.679 34.8208 107.677 34.6305 107.677 34.4174V30.4142H108.268V34.3931C108.268 34.5766 108.269 34.7304 108.272 34.8545C108.277 34.9759 108.305 35.0839 108.357 35.1783C108.454 35.3591 108.608 35.4671 108.818 35.5021C109.031 35.5372 109.294 35.5291 109.607 35.4779V36ZM106.742 32.1385V31.6285H109.607V32.1385H106.742ZM114.793 36C114.548 36.0513 114.305 36.0715 114.065 36.0607C113.827 36.0499 113.614 35.9987 113.425 35.9069C113.239 35.8152 113.097 35.6721 113 35.4779C112.922 35.3159 112.879 35.1527 112.871 34.9881C112.865 34.8208 112.862 34.6305 112.862 34.4174V30.4142H113.453V34.3931C113.453 34.5766 113.455 34.7304 113.457 34.8545C113.463 34.9759 113.491 35.0839 113.542 35.1783C113.64 35.3591 113.793 35.4671 114.004 35.5021C114.217 35.5372 114.48 35.5291 114.793 35.4779V36ZM111.927 32.1385V31.6285H114.793V32.1385H111.927ZM118.974 36V33.7697C118.974 33.5269 118.951 33.3043 118.905 33.1019C118.859 32.8968 118.785 32.7187 118.682 32.5676C118.582 32.4138 118.451 32.295 118.289 32.2114C118.13 32.1277 117.936 32.0859 117.707 32.0859C117.496 32.0859 117.31 32.1223 117.148 32.1952C116.989 32.2681 116.854 32.3733 116.743 32.5109C116.635 32.6458 116.553 32.8104 116.496 33.0047C116.44 33.199 116.411 33.4203 116.411 33.6685L115.99 33.5754C115.99 33.1275 116.069 32.7511 116.225 32.4461C116.382 32.1412 116.598 31.9105 116.873 31.754C117.148 31.5975 117.464 31.5192 117.82 31.5192C118.082 31.5192 118.31 31.5597 118.504 31.6407C118.701 31.7216 118.867 31.8309 119.002 31.9685C119.139 32.1061 119.25 32.264 119.334 32.4421C119.417 32.6175 119.478 32.805 119.516 33.0047C119.554 33.2017 119.573 33.3987 119.573 33.5957V36H118.974ZM115.812 36V30.1714H116.351V33.4621H116.411V36H115.812ZM122.635 36.1214C122.208 36.1214 121.839 36.027 121.526 35.8381C121.215 35.6492 120.974 35.3834 120.801 35.0407C120.628 34.698 120.542 34.2959 120.542 33.8345C120.542 33.3569 120.627 32.944 120.797 32.5959C120.967 32.2478 121.206 31.9793 121.513 31.7904C121.824 31.6015 122.189 31.5071 122.61 31.5071C123.042 31.5071 123.41 31.6069 123.715 31.8066C124.02 32.0036 124.251 32.2869 124.407 32.6566C124.564 33.0263 124.636 33.4675 124.622 33.9802H124.015V33.7697C124.004 33.2031 123.881 32.7754 123.647 32.4866C123.414 32.1979 123.074 32.0535 122.627 32.0535C122.157 32.0535 121.797 32.206 121.546 32.5109C121.298 32.8158 121.173 33.2503 121.173 33.8143C121.173 34.3647 121.298 34.7924 121.546 35.0974C121.797 35.3996 122.152 35.5507 122.61 35.5507C122.923 35.5507 123.196 35.4792 123.428 35.3362C123.663 35.1905 123.848 34.9813 123.982 34.7088L124.537 34.9233C124.364 35.3038 124.109 35.5993 123.772 35.8098C123.437 36.0175 123.058 36.1214 122.635 36.1214ZM120.963 33.9802V33.4824H124.302V33.9802H120.963ZM129.428 36.1214C129.026 36.1214 128.686 36.0202 128.408 35.8179C128.13 35.6128 127.919 35.3362 127.776 34.9881C127.633 34.6373 127.562 34.2447 127.562 33.8102C127.562 33.3677 127.633 32.9737 127.776 32.6283C127.922 32.2802 128.135 32.0063 128.416 31.8066C128.697 31.6069 129.042 31.5071 129.452 31.5071C129.852 31.5071 130.194 31.6083 130.48 31.8107C130.766 32.013 130.985 32.2883 131.136 32.6364C131.29 32.9845 131.367 33.3758 131.367 33.8102C131.367 34.2474 131.29 34.64 131.136 34.9881C130.982 35.3362 130.761 35.6128 130.472 35.8179C130.183 36.0202 129.835 36.1214 129.428 36.1214ZM127.461 36V30.1714H128.06V32.7092H127.995V36H127.461ZM129.367 35.5669C129.672 35.5669 129.926 35.49 130.128 35.3362C130.331 35.1824 130.482 34.9732 130.581 34.7088C130.684 34.4416 130.735 34.1421 130.735 33.8102C130.735 33.481 130.685 33.1842 130.586 32.9197C130.486 32.6553 130.333 32.4461 130.128 32.2923C129.926 32.1385 129.668 32.0616 129.355 32.0616C129.05 32.0616 128.796 32.1358 128.594 32.2842C128.394 32.4327 128.245 32.6391 128.145 32.9035C128.045 33.1653 127.995 33.4675 127.995 33.8102C127.995 34.1475 128.045 34.4497 128.145 34.7169C128.245 34.9813 128.396 35.1891 128.598 35.3402C128.8 35.4913 129.057 35.5669 129.367 35.5669ZM134.243 36.1214C133.808 36.1214 133.437 36.0229 133.13 35.826C132.822 35.629 132.586 35.3564 132.421 35.0083C132.257 34.6602 132.175 34.2609 132.175 33.8102C132.175 33.3515 132.258 32.9494 132.426 32.604C132.593 32.2586 132.83 31.9901 133.138 31.7985C133.448 31.6042 133.817 31.5071 134.243 31.5071C134.68 31.5071 135.052 31.6056 135.36 31.8026C135.67 31.9969 135.907 32.2681 136.068 32.6161C136.233 32.9616 136.315 33.3596 136.315 33.8102C136.315 34.2689 136.233 34.6724 136.068 35.0205C135.904 35.3659 135.666 35.6357 135.356 35.83C135.046 36.0243 134.675 36.1214 134.243 36.1214ZM134.243 35.5507C134.729 35.5507 135.09 35.3902 135.328 35.069C135.565 34.7452 135.684 34.3256 135.684 33.8102C135.684 33.2813 135.564 32.8604 135.324 32.5473C135.086 32.2343 134.726 32.0778 134.243 32.0778C133.916 32.0778 133.647 32.152 133.433 32.3004C133.223 32.4461 133.065 32.6499 132.96 32.9116C132.857 33.1707 132.806 33.4702 132.806 33.8102C132.806 34.3364 132.927 34.7587 133.17 35.0771C133.413 35.3928 133.771 35.5507 134.243 35.5507ZM139.75 36C139.505 36.0513 139.262 36.0715 139.022 36.0607C138.784 36.0499 138.571 35.9987 138.382 35.9069C138.196 35.8152 138.054 35.6721 137.957 35.4779C137.879 35.3159 137.836 35.1527 137.828 34.9881C137.822 34.8208 137.819 34.6305 137.819 34.4174V30.4142H138.41V34.3931C138.41 34.5766 138.412 34.7304 138.414 34.8545C138.42 34.9759 138.448 35.0839 138.499 35.1783C138.597 35.3591 138.75 35.4671 138.961 35.5021C139.174 35.5372 139.437 35.5291 139.75 35.4779V36ZM136.884 32.1385V31.6285H139.75V32.1385H136.884ZM142.507 36C142.261 36.0513 142.018 36.0715 141.778 36.0607C141.541 36.0499 141.327 35.9987 141.139 35.9069C140.952 35.8152 140.811 35.6721 140.714 35.4779C140.635 35.3159 140.592 35.1527 140.584 34.9881C140.579 34.8208 140.576 34.6305 140.576 34.4174V30.4142H141.167V34.3931C141.167 34.5766 141.168 34.7304 141.171 34.8545C141.176 34.9759 141.205 35.0839 141.256 35.1783C141.353 35.3591 141.507 35.4671 141.717 35.5021C141.931 35.5372 142.194 35.5291 142.507 35.4779V36ZM139.641 32.1385V31.6285H142.507V32.1385H139.641ZM145.358 36.1214C144.923 36.1214 144.552 36.0229 144.245 35.826C143.937 35.629 143.701 35.3564 143.536 35.0083C143.372 34.6602 143.29 34.2609 143.29 33.8102C143.29 33.3515 143.373 32.9494 143.541 32.604C143.708 32.2586 143.945 31.9901 144.253 31.7985C144.563 31.6042 144.932 31.5071 145.358 31.5071C145.795 31.5071 146.167 31.6056 146.475 31.8026C146.785 31.9969 147.021 32.2681 147.183 32.6161C147.348 32.9616 147.43 33.3596 147.43 33.8102C147.43 34.2689 147.348 34.6724 147.183 35.0205C147.019 35.3659 146.781 35.6357 146.471 35.83C146.161 36.0243 145.79 36.1214 145.358 36.1214ZM145.358 35.5507C145.844 35.5507 146.205 35.3902 146.443 35.069C146.68 34.7452 146.799 34.3256 146.799 33.8102C146.799 33.2813 146.679 32.8604 146.439 32.5473C146.201 32.2343 145.841 32.0778 145.358 32.0778C145.031 32.0778 144.762 32.152 144.548 32.3004C144.338 32.4461 144.18 32.6499 144.075 32.9116C143.972 33.1707 143.921 33.4702 143.921 33.8102C143.921 34.3364 144.042 34.7587 144.285 35.0771C144.528 35.3928 144.886 35.5507 145.358 35.5507ZM153.699 36L153.703 33.1302C153.703 32.7929 153.608 32.5285 153.419 32.3369C153.233 32.1426 152.996 32.0454 152.707 32.0454C152.542 32.0454 152.382 32.0832 152.225 32.1588C152.069 32.2343 151.939 32.3557 151.837 32.5231C151.737 32.6904 151.687 32.9089 151.687 33.1788L151.335 33.0776C151.327 32.7646 151.387 32.4907 151.517 32.2559C151.649 32.0211 151.83 31.839 152.059 31.7095C152.291 31.5772 152.553 31.5111 152.844 31.5111C153.284 31.5111 153.636 31.6474 153.901 31.92C154.165 32.1898 154.298 32.5554 154.298 33.0169L154.294 36H153.699ZM148.481 36V31.6285H149.015V32.7052H149.08V36H148.481ZM151.096 36L151.1 33.1707C151.1 32.8226 151.007 32.5487 150.821 32.349C150.637 32.1466 150.394 32.0454 150.092 32.0454C149.79 32.0454 149.546 32.1493 149.359 32.3571C149.173 32.5622 149.08 32.8361 149.08 33.1788L148.724 32.9845C148.724 32.7038 148.79 32.4529 148.922 32.2316C149.054 32.0077 149.235 31.8323 149.465 31.7054C149.694 31.5759 149.954 31.5111 150.246 31.5111C150.524 31.5111 150.771 31.5705 150.987 31.6892C151.205 31.808 151.376 31.9807 151.501 32.2073C151.625 32.434 151.687 32.7092 151.687 33.0331L151.683 36H151.096ZM155.428 33.705V33.195H157.857V33.705H155.428ZM159.07 36V31.6285H159.605V32.6809L159.499 32.5433C159.548 32.4138 159.611 32.295 159.69 32.1871C159.768 32.0765 159.853 31.9861 159.945 31.9159C160.058 31.8161 160.19 31.7405 160.341 31.6892C160.492 31.6353 160.645 31.6042 160.799 31.5961C160.953 31.5853 161.093 31.5961 161.22 31.6285V32.1871C161.06 32.1466 160.886 32.1372 160.698 32.1588C160.509 32.1804 160.335 32.2559 160.175 32.3854C160.03 32.4988 159.92 32.635 159.848 32.7942C159.775 32.9508 159.726 33.1181 159.702 33.2962C159.678 33.4716 159.665 33.6456 159.665 33.8183V36H159.07ZM162.23 30.7987V30.1309H162.825V30.7987H162.23ZM162.23 36V31.6285H162.825V36H162.23ZM165.937 38.0643C165.713 38.0643 165.492 38.0306 165.273 37.9631C165.058 37.8984 164.858 37.7945 164.674 37.6514C164.491 37.5111 164.337 37.3276 164.213 37.101L164.751 36.8014C164.873 37.0443 165.043 37.2183 165.261 37.3236C165.483 37.4315 165.708 37.4855 165.937 37.4855C166.253 37.4855 166.508 37.4261 166.702 37.3074C166.899 37.1914 167.042 37.0187 167.131 36.7893C167.22 36.5599 167.264 36.2739 167.261 35.9312V34.7655H167.33V31.6285H167.86V35.9393C167.86 36.0634 167.856 36.1821 167.848 36.2955C167.842 36.4115 167.83 36.5248 167.811 36.6355C167.76 36.962 167.653 37.2305 167.492 37.441C167.332 37.6514 167.122 37.808 166.86 37.9105C166.601 38.013 166.293 38.0643 165.937 38.0643ZM165.897 36.1214C165.489 36.1214 165.141 36.0202 164.852 35.8179C164.564 35.6128 164.342 35.3362 164.189 34.9881C164.035 34.64 163.958 34.2474 163.958 33.8102C163.958 33.3758 164.034 32.9845 164.185 32.6364C164.338 32.2883 164.558 32.013 164.844 31.8107C165.13 31.6083 165.473 31.5071 165.873 31.5071C166.283 31.5071 166.628 31.6069 166.909 31.8066C167.189 32.0063 167.401 32.2802 167.544 32.6283C167.69 32.9737 167.763 33.3677 167.763 33.8102C167.763 34.2447 167.691 34.6373 167.548 34.9881C167.405 35.3362 167.195 35.6128 166.917 35.8179C166.639 36.0202 166.299 36.1214 165.897 36.1214ZM165.958 35.5669C166.268 35.5669 166.524 35.4913 166.727 35.3402C166.929 35.1891 167.08 34.9813 167.18 34.7169C167.28 34.4497 167.33 34.1475 167.33 33.8102C167.33 33.4675 167.28 33.1653 167.18 32.9035C167.08 32.6391 166.929 32.4327 166.727 32.2842C166.527 32.1358 166.275 32.0616 165.97 32.0616C165.657 32.0616 165.398 32.1385 165.192 32.2923C164.987 32.4461 164.835 32.6553 164.735 32.9197C164.638 33.1842 164.589 33.481 164.589 33.8102C164.589 34.1421 164.639 34.4416 164.739 34.7088C164.842 34.9732 164.994 35.1824 165.197 35.3362C165.399 35.49 165.653 35.5669 165.958 35.5669ZM172.311 36V33.7697C172.311 33.5269 172.288 33.3043 172.242 33.1019C172.196 32.8968 172.122 32.7187 172.019 32.5676C171.919 32.4138 171.789 32.295 171.627 32.2114C171.467 32.1277 171.273 32.0859 171.044 32.0859C170.833 32.0859 170.647 32.1223 170.485 32.1952C170.326 32.2681 170.191 32.3733 170.08 32.5109C169.972 32.6458 169.89 32.8104 169.834 33.0047C169.777 33.199 169.749 33.4203 169.749 33.6685L169.328 33.5754C169.328 33.1275 169.406 32.7511 169.562 32.4461C169.719 32.1412 169.935 31.9105 170.21 31.754C170.485 31.5975 170.801 31.5192 171.157 31.5192C171.419 31.5192 171.647 31.5597 171.841 31.6407C172.038 31.7216 172.204 31.8309 172.339 31.9685C172.477 32.1061 172.587 32.264 172.671 32.4421C172.755 32.6175 172.815 32.805 172.853 33.0047C172.891 33.2017 172.91 33.3987 172.91 33.5957V36H172.311ZM169.149 36V30.1714H169.688V33.4621H169.749V36H169.149ZM176.502 36C176.256 36.0513 176.014 36.0715 175.773 36.0607C175.536 36.0499 175.323 35.9987 175.134 35.9069C174.948 35.8152 174.806 35.6721 174.709 35.4779C174.631 35.3159 174.588 35.1527 174.579 34.9881C174.574 34.8208 174.571 34.6305 174.571 34.4174V30.4142H175.162V34.3931C175.162 34.5766 175.164 34.7304 175.166 34.8545C175.172 34.9759 175.2 35.0839 175.251 35.1783C175.348 35.3591 175.502 35.4671 175.713 35.5021C175.926 35.5372 176.189 35.5291 176.502 35.4779V36ZM173.636 32.1385V31.6285H176.502V32.1385H173.636ZM76.5933 47.1214C76.1534 47.1214 75.7811 47.0229 75.4761 46.826C75.1712 46.629 74.9391 46.3578 74.7799 46.0124C74.6234 45.6643 74.5425 45.2649 74.5371 44.8143C74.5425 44.3555 74.6261 43.9535 74.788 43.6081C74.9499 43.26 75.1833 42.9901 75.4883 42.7985C75.7932 42.6042 76.1629 42.5071 76.5973 42.5071C77.0399 42.5071 77.4244 42.615 77.7509 42.8309C78.0801 43.0468 78.3054 43.3423 78.4269 43.7173L77.844 43.9035C77.7415 43.6418 77.5782 43.4394 77.3542 43.2964C77.133 43.1507 76.8793 43.0778 76.5933 43.0778C76.2722 43.0778 76.0064 43.152 75.7959 43.3004C75.5854 43.4461 75.4289 43.6499 75.3264 43.9116C75.2238 44.1734 75.1712 44.4743 75.1685 44.8143C75.1739 45.3378 75.2953 45.7587 75.5328 46.0771C75.7703 46.3928 76.1238 46.5507 76.5933 46.5507C76.8901 46.5507 77.1424 46.4832 77.3502 46.3483C77.5607 46.2107 77.7199 46.011 77.8278 45.7493L78.4269 45.9274C78.265 46.3159 78.0275 46.6128 77.7145 46.8179C77.4015 47.0202 77.0277 47.1214 76.5933 47.1214ZM81.1312 47.1214C80.6968 47.1214 80.3257 47.0229 80.0181 46.826C79.7105 46.629 79.4744 46.3564 79.3098 46.0083C79.1452 45.6602 79.0629 45.2609 79.0629 44.8102C79.0629 44.3515 79.1465 43.9494 79.3138 43.604C79.4811 43.2586 79.7186 42.9901 80.0262 42.7985C80.3365 42.6042 80.7049 42.5071 81.1312 42.5071C81.5684 42.5071 81.9408 42.6056 82.2484 42.8026C82.5587 42.9969 82.7948 43.2681 82.9567 43.6161C83.1213 43.9616 83.2036 44.3596 83.2036 44.8102C83.2036 45.2689 83.1213 45.6724 82.9567 46.0205C82.7921 46.3659 82.5547 46.6357 82.2443 46.83C81.934 47.0243 81.563 47.1214 81.1312 47.1214ZM81.1312 46.5507C81.6169 46.5507 81.9785 46.3902 82.216 46.069C82.4535 45.7452 82.5722 45.3256 82.5722 44.8102C82.5722 44.2813 82.4521 43.8604 82.212 43.5473C81.9745 43.2343 81.6142 43.0778 81.1312 43.0778C80.8047 43.0778 80.5349 43.152 80.3217 43.3004C80.1112 43.4461 79.9534 43.6499 79.8481 43.9116C79.7456 44.1707 79.6943 44.4702 79.6943 44.8102C79.6943 45.3364 79.8157 45.7587 80.0586 46.0771C80.3015 46.3928 80.659 46.5507 81.1312 46.5507ZM84.2584 47V42.6285H84.7927V43.6809L84.6875 43.5433C84.7361 43.4138 84.7995 43.295 84.8777 43.1871C84.956 43.0765 85.041 42.9861 85.1327 42.9159C85.2461 42.8161 85.3783 42.7405 85.5294 42.6892C85.6805 42.6353 85.833 42.6042 85.9868 42.5961C86.1406 42.5853 86.2809 42.5961 86.4077 42.6285V43.1871C86.2485 43.1466 86.0745 43.1372 85.8856 43.1588C85.6967 43.1804 85.5227 43.2559 85.3634 43.3854C85.2177 43.4988 85.1084 43.635 85.0356 43.7942C84.9627 43.9508 84.9142 44.1181 84.8899 44.2962C84.8656 44.4716 84.8534 44.6456 84.8534 44.8183V47H84.2584ZM90.4947 47V44.7697C90.4947 44.5269 90.4717 44.3043 90.4259 44.1019C90.38 43.8968 90.3058 43.7187 90.2033 43.5676C90.1034 43.4138 89.9725 43.295 89.8106 43.2114C89.6514 43.1277 89.4571 43.0859 89.2278 43.0859C89.0173 43.0859 88.8311 43.1223 88.6692 43.1952C88.51 43.2681 88.3751 43.3733 88.2644 43.5109C88.1565 43.6458 88.0742 43.8104 88.0175 44.0047C87.9608 44.199 87.9325 44.4203 87.9325 44.6685L87.5116 44.5754C87.5116 44.1275 87.5898 43.7511 87.7463 43.4461C87.9028 43.1412 88.1187 42.9105 88.3939 42.754C88.6692 42.5975 88.9849 42.5192 89.3411 42.5192C89.6028 42.5192 89.8309 42.5597 90.0252 42.6407C90.2221 42.7216 90.3881 42.8309 90.523 42.9685C90.6606 43.1061 90.7713 43.264 90.8549 43.4421C90.9386 43.6175 90.9993 43.805 91.0371 44.0047C91.0748 44.2017 91.0937 44.3987 91.0937 44.5957V47H90.4947ZM87.3335 47V42.6285H87.8718V43.7052H87.9325V47H87.3335ZM94.1321 47.1214C93.7057 47.1214 93.336 47.027 93.023 46.8381C92.7127 46.6492 92.4712 46.3834 92.2985 46.0407C92.1258 45.698 92.0394 45.2959 92.0394 44.8345C92.0394 44.3569 92.1244 43.944 92.2944 43.5959C92.4644 43.2478 92.7033 42.9793 93.0109 42.7904C93.3212 42.6015 93.6868 42.5071 94.1078 42.5071C94.5395 42.5071 94.9079 42.6069 95.2128 42.8066C95.5177 43.0036 95.7485 43.2869 95.905 43.6566C96.0615 44.0263 96.133 44.4675 96.1195 44.9802H95.5123V44.7697C95.5015 44.2031 95.3788 43.7754 95.144 43.4866C94.9119 43.1979 94.5719 43.0535 94.124 43.0535C93.6545 43.0535 93.2942 43.206 93.0433 43.5109C92.795 43.8158 92.6709 44.2503 92.6709 44.8143C92.6709 45.3647 92.795 45.7924 93.0433 46.0974C93.2942 46.3996 93.6491 46.5507 94.1078 46.5507C94.4208 46.5507 94.6934 46.4792 94.9254 46.3362C95.1602 46.1905 95.345 45.9813 95.48 45.7088L96.0345 45.9233C95.8618 46.3038 95.6068 46.5993 95.2695 46.8098C94.9349 47.0175 94.5557 47.1214 94.1321 47.1214ZM92.4604 44.9802V44.4824H95.7997V44.9802H92.4604ZM97.1797 47V42.6285H97.714V43.6809L97.6087 43.5433C97.6573 43.4138 97.7207 43.295 97.799 43.1871C97.8772 43.0765 97.9622 42.9861 98.054 42.9159C98.1673 42.8161 98.2995 42.7405 98.4506 42.6892C98.6017 42.6353 98.7542 42.6042 98.908 42.5961C99.0618 42.5853 99.2021 42.5961 99.329 42.6285V43.1871C99.1698 43.1466 98.9957 43.1372 98.8068 43.1588C98.6179 43.1804 98.4439 43.2559 98.2847 43.3854C98.139 43.4988 98.0297 43.635 97.9568 43.7942C97.884 43.9508 97.8354 44.1181 97.8111 44.2962C97.7868 44.4716 97.7747 44.6456 97.7747 44.8183V47H97.1797ZM104.421 47C104.176 47.0513 103.933 47.0715 103.693 47.0607C103.455 47.0499 103.242 46.9987 103.053 46.9069C102.867 46.8152 102.725 46.6721 102.628 46.4779C102.55 46.3159 102.507 46.1527 102.499 45.9881C102.493 45.8208 102.491 45.6305 102.491 45.4174V41.4142H103.082V45.3931C103.082 45.5766 103.083 45.7304 103.086 45.8545C103.091 45.9759 103.119 46.0839 103.171 46.1783C103.268 46.3591 103.422 46.4671 103.632 46.5021C103.845 46.5372 104.108 46.5291 104.421 46.4779V47ZM101.556 43.1385V42.6285H104.421V43.1385H101.556ZM107.112 47.1214C106.677 47.1214 106.306 47.0229 105.999 46.826C105.691 46.629 105.455 46.3564 105.29 46.0083C105.126 45.6602 105.044 45.2609 105.044 44.8102C105.044 44.3515 105.127 43.9494 105.294 43.604C105.462 43.2586 105.699 42.9901 106.007 42.7985C106.317 42.6042 106.686 42.5071 107.112 42.5071C107.549 42.5071 107.921 42.6056 108.229 42.8026C108.539 42.9969 108.775 43.2681 108.937 43.6161C109.102 43.9616 109.184 44.3596 109.184 44.8102C109.184 45.2689 109.102 45.6724 108.937 46.0205C108.773 46.3659 108.535 46.6357 108.225 46.83C107.915 47.0243 107.544 47.1214 107.112 47.1214ZM107.112 46.5507C107.598 46.5507 107.959 46.3902 108.197 46.069C108.434 45.7452 108.553 45.3256 108.553 44.8102C108.553 44.2813 108.433 43.8604 108.193 43.5473C107.955 43.2343 107.595 43.0778 107.112 43.0778C106.785 43.0778 106.516 43.152 106.302 43.3004C106.092 43.4461 105.934 43.6499 105.829 43.9116C105.726 44.1707 105.675 44.4702 105.675 44.8102C105.675 45.3364 105.796 45.7587 106.039 46.0771C106.282 46.3928 106.64 46.5507 107.112 46.5507ZM113.653 47.1174C113.14 47.1174 112.718 47.0067 112.386 46.7855C112.057 46.5642 111.854 46.2566 111.779 45.8626L112.386 45.7614C112.451 46.0097 112.598 46.208 112.827 46.3564C113.059 46.5021 113.345 46.575 113.685 46.575C114.017 46.575 114.279 46.5062 114.47 46.3686C114.662 46.2282 114.758 46.038 114.758 45.7978C114.758 45.6629 114.727 45.5536 114.665 45.47C114.605 45.3836 114.483 45.304 114.296 45.2312C114.11 45.1583 113.832 45.072 113.463 44.9721C113.066 44.8642 112.756 44.7562 112.532 44.6483C112.308 44.5404 112.148 44.4162 112.054 44.2759C111.96 44.1329 111.912 43.9589 111.912 43.7538C111.912 43.5055 111.983 43.2883 112.123 43.1021C112.263 42.9132 112.457 42.7675 112.706 42.6649C112.954 42.5597 113.243 42.5071 113.572 42.5071C113.901 42.5071 114.195 42.5611 114.454 42.669C114.716 42.7742 114.927 42.9226 115.086 43.1142C115.245 43.3058 115.339 43.5285 115.369 43.7821L114.762 43.8914C114.721 43.635 114.593 43.4327 114.377 43.2842C114.164 43.1331 113.893 43.0549 113.564 43.0495C113.253 43.0414 113.001 43.1007 112.807 43.2276C112.613 43.3517 112.515 43.5177 112.515 43.7254C112.515 43.8415 112.551 43.9413 112.621 44.025C112.691 44.1059 112.818 44.1828 113.001 44.2557C113.187 44.3285 113.452 44.4081 113.795 44.4945C114.197 44.597 114.512 44.705 114.742 44.8183C114.971 44.9316 115.134 45.0652 115.231 45.219C115.329 45.3728 115.377 45.5631 115.377 45.7897C115.377 46.2026 115.223 46.5278 114.916 46.7652C114.611 47 114.19 47.1174 113.653 47.1174ZM117.687 47.1214C117.358 47.1214 117.082 47.0621 116.858 46.9433C116.636 46.8246 116.47 46.6667 116.36 46.4698C116.249 46.2728 116.194 46.0582 116.194 45.8262C116.194 45.5887 116.241 45.3863 116.336 45.219C116.433 45.049 116.564 44.9101 116.728 44.8021C116.895 44.6942 117.088 44.6119 117.307 44.5552C117.528 44.5012 117.772 44.454 118.04 44.4135C118.309 44.3704 118.573 44.3339 118.829 44.3043C119.088 44.2719 119.315 44.2408 119.509 44.2112L119.298 44.3407C119.307 43.9089 119.223 43.5892 119.047 43.3814C118.872 43.1736 118.567 43.0697 118.133 43.0697C117.833 43.0697 117.58 43.1372 117.372 43.2721C117.167 43.407 117.022 43.6202 116.939 43.9116L116.36 43.7416C116.46 43.3504 116.661 43.0468 116.963 42.8309C117.265 42.615 117.658 42.5071 118.141 42.5071C118.54 42.5071 118.879 42.5826 119.157 42.7338C119.437 42.8822 119.636 43.098 119.752 43.3814C119.806 43.5082 119.841 43.6499 119.857 43.8064C119.873 43.9629 119.881 44.1221 119.881 44.284V47H119.351V45.9031L119.505 45.9678C119.356 46.3429 119.126 46.629 118.813 46.826C118.5 47.0229 118.125 47.1214 117.687 47.1214ZM117.756 46.6074C118.034 46.6074 118.277 46.5575 118.485 46.4576C118.693 46.3578 118.86 46.2215 118.987 46.0488C119.114 45.8734 119.196 45.6764 119.234 45.4578C119.266 45.3175 119.284 45.1637 119.286 44.9964C119.289 44.8264 119.29 44.6996 119.29 44.6159L119.517 44.7333C119.315 44.7603 119.095 44.7873 118.857 44.8143C118.622 44.8412 118.39 44.8723 118.161 44.9074C117.934 44.9424 117.729 44.9843 117.546 45.0328C117.422 45.0679 117.302 45.1178 117.186 45.1826C117.07 45.2447 116.974 45.3283 116.898 45.4336C116.825 45.5388 116.789 45.6697 116.789 45.8262C116.789 45.953 116.82 46.0758 116.882 46.1945C116.947 46.3132 117.049 46.4117 117.19 46.49C117.333 46.5682 117.522 46.6074 117.756 46.6074ZM122.121 47L120.534 42.6285H121.137L122.428 46.2228L123.711 42.6285H124.323L122.736 47H122.121ZM126.903 47.1214C126.477 47.1214 126.107 47.027 125.794 46.8381C125.484 46.6492 125.242 46.3834 125.07 46.0407C124.897 45.698 124.811 45.2959 124.811 44.8345C124.811 44.3569 124.896 43.944 125.066 43.5959C125.236 43.2478 125.475 42.9793 125.782 42.7904C126.092 42.6015 126.458 42.5071 126.879 42.5071C127.311 42.5071 127.679 42.6069 127.984 42.8066C128.289 43.0036 128.52 43.2869 128.676 43.6566C128.833 44.0263 128.904 44.4675 128.891 44.9802H128.284V44.7697C128.273 44.2031 128.15 43.7754 127.915 43.4866C127.683 43.1979 127.343 43.0535 126.895 43.0535C126.426 43.0535 126.065 43.206 125.815 43.5109C125.566 43.8158 125.442 44.2503 125.442 44.8143C125.442 45.3647 125.566 45.7924 125.815 46.0974C126.065 46.3996 126.42 46.5507 126.879 46.5507C127.192 46.5507 127.465 46.4792 127.697 46.3362C127.931 46.1905 128.116 45.9813 128.251 45.7088L128.806 45.9233C128.633 46.3038 128.378 46.5993 128.041 46.8098C127.706 47.0175 127.327 47.1214 126.903 47.1214ZM125.232 44.9802V44.4824H128.571V44.9802H125.232ZM134.113 47C133.868 47.0513 133.625 47.0715 133.385 47.0607C133.147 47.0499 132.934 46.9987 132.745 46.9069C132.559 46.8152 132.418 46.6721 132.32 46.4779C132.242 46.3159 132.199 46.1527 132.191 45.9881C132.185 45.8208 132.183 45.6305 132.183 45.4174V41.4142H132.774V45.3931C132.774 45.5766 132.775 45.7304 132.778 45.8545C132.783 45.9759 132.811 46.0839 132.863 46.1783C132.96 46.3591 133.114 46.4671 133.324 46.5021C133.537 46.5372 133.8 46.5291 134.113 46.4779V47ZM131.248 43.1385V42.6285H134.113V43.1385H131.248ZM135.218 41.7987V41.1309H135.813V41.7987H135.218ZM135.218 47V42.6285H135.813V47H135.218ZM142.401 47L142.405 44.1302C142.405 43.7929 142.311 43.5285 142.122 43.3369C141.936 43.1426 141.698 43.0454 141.41 43.0454C141.245 43.0454 141.085 43.0832 140.928 43.1588C140.772 43.2343 140.642 43.3557 140.539 43.5231C140.44 43.6904 140.39 43.9089 140.39 44.1788L140.038 44.0776C140.029 43.7646 140.09 43.4907 140.22 43.2559C140.352 43.0211 140.533 42.839 140.762 42.7095C140.994 42.5772 141.256 42.5111 141.547 42.5111C141.987 42.5111 142.339 42.6474 142.604 42.92C142.868 43.1898 143 43.5554 143 44.0169L142.996 47H142.401ZM137.184 47V42.6285H137.718V43.7052H137.783V47H137.184ZM139.799 47L139.803 44.1707C139.803 43.8226 139.71 43.5487 139.524 43.349C139.34 43.1466 139.097 43.0454 138.795 43.0454C138.493 43.0454 138.248 43.1493 138.062 43.3571C137.876 43.5622 137.783 43.8361 137.783 44.1788L137.427 43.9845C137.427 43.7038 137.493 43.4529 137.625 43.2316C137.757 43.0077 137.938 42.8323 138.168 42.7054C138.397 42.5759 138.657 42.5111 138.949 42.5111C139.227 42.5111 139.474 42.5705 139.689 42.6892C139.908 42.808 140.079 42.9807 140.204 43.2073C140.328 43.434 140.39 43.7092 140.39 44.0331L140.386 47H139.799ZM146.038 47.1214C145.612 47.1214 145.242 47.027 144.929 46.8381C144.619 46.6492 144.377 46.3834 144.204 46.0407C144.032 45.698 143.945 45.2959 143.945 44.8345C143.945 44.3569 144.03 43.944 144.2 43.5959C144.37 43.2478 144.609 42.9793 144.917 42.7904C145.227 42.6015 145.593 42.5071 146.014 42.5071C146.446 42.5071 146.814 42.6069 147.119 42.8066C147.424 43.0036 147.654 43.2869 147.811 43.6566C147.967 44.0263 148.039 44.4675 148.025 44.9802H147.418V44.7697C147.408 44.2031 147.285 43.7754 147.05 43.4866C146.818 43.1979 146.478 43.0535 146.03 43.0535C145.56 43.0535 145.2 43.206 144.949 43.5109C144.701 43.8158 144.577 44.2503 144.577 44.8143C144.577 45.3647 144.701 45.7924 144.949 46.0974C145.2 46.3996 145.555 46.5507 146.014 46.5507C146.327 46.5507 146.599 46.4792 146.831 46.3362C147.066 46.1905 147.251 45.9813 147.386 45.7088L147.94 45.9233C147.768 46.3038 147.513 46.5993 147.175 46.8098C146.841 47.0175 146.462 47.1214 146.038 47.1214ZM144.366 44.9802V44.4824H147.706V44.9802H144.366ZM150.717 47.1174C150.204 47.1174 149.782 47.0067 149.45 46.7855C149.121 46.5642 148.918 46.2566 148.843 45.8626L149.45 45.7614C149.515 46.0097 149.662 46.208 149.891 46.3564C150.123 46.5021 150.409 46.575 150.749 46.575C151.081 46.575 151.343 46.5062 151.534 46.3686C151.726 46.2282 151.822 46.038 151.822 45.7978C151.822 45.6629 151.791 45.5536 151.729 45.47C151.669 45.3836 151.547 45.304 151.36 45.2312C151.174 45.1583 150.896 45.072 150.527 44.9721C150.13 44.8642 149.82 44.7562 149.596 44.6483C149.372 44.5404 149.212 44.4162 149.118 44.2759C149.024 44.1329 148.976 43.9589 148.976 43.7538C148.976 43.5055 149.046 43.2883 149.187 43.1021C149.327 42.9132 149.521 42.7675 149.77 42.6649C150.018 42.5597 150.307 42.5071 150.636 42.5071C150.965 42.5071 151.259 42.5611 151.518 42.669C151.78 42.7742 151.99 42.9226 152.15 43.1142C152.309 43.3058 152.403 43.5285 152.433 43.7821L151.826 43.8914C151.785 43.635 151.657 43.4327 151.441 43.2842C151.228 43.1331 150.957 43.0549 150.628 43.0495C150.317 43.0414 150.065 43.1007 149.871 43.2276C149.677 43.3517 149.579 43.5177 149.579 43.7254C149.579 43.8415 149.615 43.9413 149.685 44.025C149.755 44.1059 149.882 44.1828 150.065 44.2557C150.251 44.3285 150.516 44.4081 150.858 44.4945C151.261 44.597 151.576 44.705 151.806 44.8183C152.035 44.9316 152.198 45.0652 152.295 45.219C152.393 45.3728 152.441 45.5631 152.441 45.7897C152.441 46.2026 152.287 46.5278 151.98 46.7652C151.675 47 151.254 47.1174 150.717 47.1174ZM155.881 47C155.635 47.0513 155.392 47.0715 155.152 47.0607C154.915 47.0499 154.702 46.9987 154.513 46.9069C154.326 46.8152 154.185 46.6721 154.088 46.4779C154.009 46.3159 153.966 46.1527 153.958 45.9881C153.953 45.8208 153.95 45.6305 153.95 45.4174V41.4142H154.541V45.3931C154.541 45.5766 154.542 45.7304 154.545 45.8545C154.55 45.9759 154.579 46.0839 154.63 46.1783C154.727 46.3591 154.881 46.4671 155.091 46.5021C155.305 46.5372 155.568 46.5291 155.881 46.4779V47ZM153.015 43.1385V42.6285H155.881V43.1385H153.015ZM158.155 47.1214C157.825 47.1214 157.549 47.0621 157.325 46.9433C157.104 46.8246 156.938 46.6667 156.827 46.4698C156.716 46.2728 156.661 46.0582 156.661 45.8262C156.661 45.5887 156.708 45.3863 156.803 45.219C156.9 45.049 157.031 44.9101 157.195 44.8021C157.363 44.6942 157.556 44.6119 157.774 44.5552C157.995 44.5012 158.24 44.454 158.507 44.4135C158.777 44.3704 159.04 44.3339 159.296 44.3043C159.555 44.2719 159.782 44.2408 159.976 44.2112L159.766 44.3407C159.774 43.9089 159.69 43.5892 159.515 43.3814C159.339 43.1736 159.034 43.0697 158.6 43.0697C158.3 43.0697 158.047 43.1372 157.839 43.2721C157.634 43.407 157.49 43.6202 157.406 43.9116L156.827 43.7416C156.927 43.3504 157.128 43.0468 157.43 42.8309C157.732 42.615 158.125 42.5071 158.608 42.5071C159.007 42.5071 159.346 42.5826 159.624 42.7338C159.905 42.8822 160.103 43.098 160.219 43.3814C160.273 43.5082 160.308 43.6499 160.324 43.8064C160.34 43.9629 160.349 44.1221 160.349 44.284V47H159.818V45.9031L159.972 45.9678C159.824 46.3429 159.593 46.629 159.28 46.826C158.967 47.0229 158.592 47.1214 158.155 47.1214ZM158.223 46.6074C158.501 46.6074 158.744 46.5575 158.952 46.4576C159.16 46.3578 159.327 46.2215 159.454 46.0488C159.581 45.8734 159.663 45.6764 159.701 45.4578C159.733 45.3175 159.751 45.1637 159.753 44.9964C159.756 44.8264 159.758 44.6996 159.758 44.6159L159.984 44.7333C159.782 44.7603 159.562 44.7873 159.324 44.8143C159.09 44.8412 158.858 44.8723 158.628 44.9074C158.402 44.9424 158.196 44.9843 158.013 45.0328C157.889 45.0679 157.769 45.1178 157.653 45.1826C157.537 45.2447 157.441 45.3283 157.365 45.4336C157.293 45.5388 157.256 45.6697 157.256 45.8262C157.256 45.953 157.287 46.0758 157.349 46.1945C157.414 46.3132 157.516 46.4117 157.657 46.49C157.8 46.5682 157.989 46.6074 158.223 46.6074ZM166.778 47L166.782 44.1302C166.782 43.7929 166.687 43.5285 166.498 43.3369C166.312 43.1426 166.075 43.0454 165.786 43.0454C165.621 43.0454 165.461 43.0832 165.304 43.1588C165.148 43.2343 165.018 43.3557 164.916 43.5231C164.816 43.6904 164.766 43.9089 164.766 44.1788L164.414 44.0776C164.406 43.7646 164.466 43.4907 164.596 43.2559C164.728 43.0211 164.909 42.839 165.138 42.7095C165.37 42.5772 165.632 42.5111 165.923 42.5111C166.363 42.5111 166.715 42.6474 166.98 42.92C167.244 43.1898 167.377 43.5554 167.377 44.0169L167.373 47H166.778ZM161.56 47V42.6285H162.094V43.7052H162.159V47H161.56ZM164.175 47L164.179 44.1707C164.179 43.8226 164.086 43.5487 163.9 43.349C163.716 43.1466 163.473 43.0454 163.171 43.0454C162.869 43.0454 162.625 43.1493 162.438 43.3571C162.252 43.5622 162.159 43.8361 162.159 44.1788L161.803 43.9845C161.803 43.7038 161.869 43.4529 162.001 43.2316C162.134 43.0077 162.314 42.8323 162.544 42.7054C162.773 42.5759 163.033 42.5111 163.325 42.5111C163.603 42.5111 163.85 42.5705 164.066 42.6892C164.284 42.808 164.456 42.9807 164.58 43.2073C164.704 43.434 164.766 43.7092 164.766 44.0331L164.762 47H164.175ZM170.551 47.1214C170.149 47.1214 169.809 47.0202 169.531 46.8179C169.253 46.6128 169.043 46.3362 168.9 45.9881C168.757 45.6373 168.685 45.2447 168.685 44.8102C168.685 44.3677 168.757 43.9737 168.9 43.6283C169.045 43.2802 169.259 43.0063 169.539 42.8066C169.82 42.6069 170.165 42.5071 170.576 42.5071C170.975 42.5071 171.318 42.6083 171.604 42.8107C171.89 43.013 172.108 43.2883 172.259 43.6364C172.413 43.9845 172.49 44.3758 172.49 44.8102C172.49 45.2474 172.413 45.64 172.259 45.9881C172.106 46.3362 171.884 46.6128 171.596 46.8179C171.307 47.0202 170.959 47.1214 170.551 47.1214ZM168.584 48.9429V42.6285H169.118V45.9193H169.183V48.9429H168.584ZM170.491 46.5669C170.795 46.5669 171.049 46.49 171.251 46.3362C171.454 46.1824 171.605 45.9732 171.705 45.7088C171.807 45.4416 171.859 45.1421 171.859 44.8102C171.859 44.481 171.809 44.1842 171.709 43.9197C171.609 43.6553 171.457 43.4461 171.251 43.2923C171.049 43.1385 170.791 43.0616 170.478 43.0616C170.173 43.0616 169.92 43.1358 169.717 43.2842C169.518 43.4327 169.368 43.6391 169.268 43.9035C169.168 44.1653 169.118 44.4675 169.118 44.8102C169.118 45.1475 169.168 45.4497 169.268 45.7169C169.368 45.9813 169.519 46.1891 169.721 46.3402C169.924 46.4913 170.18 46.5669 170.491 46.5669ZM175.132 47.1174C174.62 47.1174 174.197 47.0067 173.866 46.7855C173.536 46.5642 173.334 46.2566 173.258 45.8626L173.866 45.7614C173.93 46.0097 174.077 46.208 174.307 46.3564C174.539 46.5021 174.825 46.575 175.165 46.575C175.497 46.575 175.759 46.5062 175.95 46.3686C176.142 46.2282 176.237 46.038 176.237 45.7978C176.237 45.6629 176.206 45.5536 176.144 45.47C176.085 45.3836 175.962 45.304 175.776 45.2312C175.59 45.1583 175.312 45.072 174.942 44.9721C174.546 44.8642 174.235 44.7562 174.011 44.6483C173.787 44.5404 173.628 44.4162 173.534 44.2759C173.439 44.1329 173.392 43.9589 173.392 43.7538C173.392 43.5055 173.462 43.2883 173.602 43.1021C173.743 42.9132 173.937 42.7675 174.185 42.6649C174.434 42.5597 174.722 42.5071 175.052 42.5071C175.381 42.5071 175.675 42.5611 175.934 42.669C176.196 42.7742 176.406 42.9226 176.565 43.1142C176.725 43.3058 176.819 43.5285 176.849 43.7821L176.242 43.8914C176.201 43.635 176.073 43.4327 175.857 43.2842C175.644 43.1331 175.373 43.0549 175.043 43.0495C174.733 43.0414 174.481 43.1007 174.287 43.2276C174.092 43.3517 173.995 43.5177 173.995 43.7254C173.995 43.8415 174.03 43.9413 174.1 44.025C174.17 44.1059 174.297 44.1828 174.481 44.2557C174.667 44.3285 174.931 44.4081 175.274 44.4945C175.676 44.597 175.992 44.705 176.221 44.8183C176.451 44.9316 176.614 45.0652 176.711 45.219C176.808 45.3728 176.857 45.5631 176.857 45.7897C176.857 46.2026 176.703 46.5278 176.395 46.7652C176.09 47 175.669 47.1174 175.132 47.1174ZM178.03 47V46.3078H178.722V47H178.03Z" fill="#818181"/>
</svg> 
