<svg width="28" height="28" viewBox="0 0 28 28" fill="none" xmlns="http://www.w3.org/2000/svg">
<path d="M13.9999 7.48926C14.5448 7.48926 14.9864 7.93093 14.9864 8.47576C14.9864 9.02058 14.5448 9.46226 13.9999 9.46226C13.4551 9.46226 13.0134 9.02058 13.0134 8.47576C13.0134 7.93093 13.4551 7.48926 13.9999 7.48926Z" fill="#D2D2D2" stroke="#D2D2D2" stroke-width="1.47975" stroke-linecap="round" stroke-linejoin="round"/>
<path d="M13.9999 13.0137C14.5448 13.0137 14.9864 13.4553 14.9864 14.0002C14.9864 14.545 14.5448 14.9867 13.9999 14.9867C13.4551 14.9867 13.0134 14.545 13.0134 14.0002C13.0134 13.4553 13.4551 13.0137 13.9999 13.0137Z" fill="#D2D2D2" stroke="#D2D2D2" stroke-width="1.47975" stroke-linecap="round" stroke-linejoin="round"/>
<path d="M13.9999 18.5381C14.5448 18.5381 14.9864 18.9797 14.9864 19.5246C14.9864 20.0694 14.5448 20.5111 13.9999 20.5111C13.4551 20.5111 13.0134 20.0694 13.0134 19.5246C13.0134 18.9797 13.4551 18.5381 13.9999 18.5381Z" fill="#D2D2D2" stroke="#D2D2D2" stroke-width="1.47975" stroke-linecap="round" stroke-linejoin="round"/>
</svg>
