<svg width="16" height="16" viewBox="0 0 16 16" fill="none" xmlns="http://www.w3.org/2000/svg">
<g clip-path="url(#clip0_484_492)">
<path d="M2.92853 2.66741C2.66675 3.07747 2.66675 3.60793 2.66675 4.66885V11.3315C2.66675 12.3924 2.66675 12.9228 2.92853 13.3329C2.97527 13.4062 3.02768 13.4756 3.08526 13.5407C3.40771 13.905 3.91785 14.0507 4.93815 14.3422C5.96101 14.6344 6.47245 14.7804 6.84275 14.5613C6.90701 14.5233 6.96675 14.4782 7.02095 14.427C7.33341 14.1312 7.33341 13.5994 7.33341 12.5358V3.46457C7.33341 2.40097 7.33341 1.86917 7.02095 1.57337C6.96675 1.52208 6.90701 1.47701 6.84275 1.43901C6.47245 1.21987 5.96101 1.36596 4.93815 1.65815C3.91785 1.94961 3.40771 2.09535 3.08526 2.45966C3.02768 2.52472 2.97527 2.59418 2.92853 2.66741Z" stroke="white" stroke-linecap="round" stroke-linejoin="round"/>
<path d="M7.33325 2.6665H8.67799C9.94579 2.6665 10.5797 2.6665 10.9735 3.05703C11.1931 3.27476 11.2903 3.56646 11.3333 3.99984M7.33325 13.3332H8.67799C9.94579 13.3332 10.5797 13.3332 10.9735 12.9426C11.1931 12.7249 11.2903 12.4332 11.3333 11.9998" stroke="white" stroke-linecap="round" stroke-linejoin="round"/>
<path d="M14.0002 8.0002H9.3335M13.0002 6.3335C13.0002 6.3335 14.6668 7.561 14.6668 8.0002C14.6668 8.4394 13.0002 9.6668 13.0002 9.6668" stroke="white" stroke-linecap="round" stroke-linejoin="round"/>
</g>
<defs>
<clipPath id="clip0_484_492">
<rect width="16" height="16" fill="white"/>
</clipPath>
</defs>
</svg>
