<svg width="14" height="14" viewBox="0 0 14 14" fill="none" xmlns="http://www.w3.org/2000/svg">
<g clip-path="url(#clip0_773_8342)">
<path d="M13.8718 5.81571C13.8312 5.77503 13.7829 5.74277 13.7298 5.72075C13.6767 5.69873 13.6198 5.6874 13.5623 5.6874C13.5048 5.6874 13.4479 5.69873 13.3948 5.72075C13.3416 5.74277 13.2934 5.77503 13.2528 5.81571L10.4998 8.56923L5.86831 3.93774L8.62183 1.18477C8.66247 1.14413 8.69472 1.09587 8.71672 1.04276C8.73872 0.989651 8.75004 0.932729 8.75004 0.875243C8.75004 0.817758 8.73872 0.760836 8.71672 0.707726C8.69472 0.654617 8.66247 0.60636 8.62183 0.565712C8.58118 0.525064 8.53292 0.49282 8.47981 0.470821C8.4267 0.448823 8.36978 0.4375 8.31229 0.4375C8.25481 0.4375 8.19789 0.448823 8.14478 0.470821C8.09167 0.49282 8.04341 0.525064 8.00276 0.565712L5.24979 3.31923C5.11742 3.45163 5.031 3.623 5.00324 3.80816C4.97548 3.99332 5.00784 4.1825 5.09558 4.3479L3.93729 5.50673C3.77332 5.67081 3.68122 5.89328 3.68122 6.12524C3.68122 6.35721 3.77332 6.57968 3.93729 6.74376L4.19378 7.00024L1.00276 10.1907C0.949985 10.2435 0.911573 10.3088 0.891176 10.3806C0.87078 10.4524 0.869077 10.5281 0.88623 10.6008C0.903384 10.6734 0.938823 10.7404 0.989179 10.7955C1.03954 10.8505 1.10314 10.8918 1.17393 10.9153L5.11143 12.2278C5.15602 12.2428 5.20276 12.2504 5.24979 12.2502C5.30726 12.2503 5.36418 12.239 5.41729 12.2171C5.4704 12.1951 5.51867 12.1629 5.55933 12.1223L7.43729 10.2438L7.69378 10.5002C7.85786 10.6642 8.08033 10.7563 8.31229 10.7563C8.54426 10.7563 8.76673 10.6642 8.93081 10.5002L10.0896 9.34196C10.255 9.42969 10.4442 9.46206 10.6294 9.4343C10.8145 9.40654 10.9859 9.32012 11.1183 9.18774L13.8718 6.43478C13.9125 6.39414 13.9448 6.34589 13.9668 6.29278C13.9888 6.23967 14.0001 6.18274 14.0001 6.12524C14.0001 6.06775 13.9888 6.01082 13.9668 5.95771C13.9448 5.9046 13.9125 5.85634 13.8718 5.81571ZM5.13167 11.3124L2.12386 10.3088L4.81229 7.61876L6.81878 9.62524L5.13167 11.3124ZM8.31229 9.88173L4.55581 6.12524L5.68729 4.99376L9.44378 8.75024L8.31229 9.88173Z" fill="white"/>
</g>
<defs>
<clipPath id="clip0_773_8342">
<rect width="14" height="14" fill="white"/>
</clipPath>
</defs>
</svg>
