<svg width="10" height="10" viewBox="0 0 10 10" fill="none" xmlns="http://www.w3.org/2000/svg">
<g clip-path="url(#clip0_490_757)">
<path d="M1.66675 7.49216V4.04497C1.66675 2.53106 1.66675 1.77411 2.1549 1.3038C2.64306 0.833496 3.42873 0.833496 5.00008 0.833496C6.57141 0.833496 7.35712 0.833496 7.84525 1.3038C8.33341 1.77411 8.33342 2.53106 8.33342 4.04497V7.49216C8.33342 8.45295 8.33341 8.93333 8.01141 9.10529C7.38779 9.43825 6.21808 8.32733 5.66258 7.99283C5.34041 7.79883 5.17933 7.70183 5.00008 7.70183C4.82083 7.70183 4.65975 7.79883 4.33758 7.99283C3.78208 8.32733 2.61236 9.43825 1.98877 9.10529C1.66675 8.93333 1.66675 8.45295 1.66675 7.49216Z" stroke="#7C7C7C" stroke-width="0.710205" stroke-linecap="round" stroke-linejoin="round"/>
</g>
<defs>
<clipPath id="clip0_490_757">
<rect width="10" height="10" fill="white"/>
</clipPath>
</defs>
</svg>
