<svg width="86" height="24" viewBox="0 0 86 24" fill="none" xmlns="http://www.w3.org/2000/svg">
<path d="M14.8184 21.8818C14.8184 23.0513 13.8696 23.9998 12.7002 24H8.46484C7.71679 23.9999 7.06019 23.6112 6.68359 23.0254L14.8184 17.8301V21.8818ZM22.2305 0C23.3996 0.000354303 24.3474 0.948074 24.3477 2.11719V21.8818C24.3477 23.0512 23.3998 23.9996 22.2305 24H17.9951C16.8255 24 15.877 23.0514 15.877 21.8818V17.1533L19.1562 15.0596C21.3724 13.6442 21.3724 10.3558 19.1562 8.94043L15.877 6.8457V2.11719C15.8772 0.947855 16.8257 0 17.9951 0H22.2305ZM14.8184 7.42578V16.5732L6.35254 21.9805C6.35104 21.9477 6.34766 21.9149 6.34766 21.8818V2.11719C6.34766 2.0841 6.35005 2.05127 6.35156 2.01855L14.8184 7.42578ZM18.5869 9.83301C20.151 10.8321 20.151 13.1679 18.5869 14.167L15.877 15.8975V8.10156L18.5869 9.83301ZM12.7002 0C13.8695 0.000199856 14.8181 0.947978 14.8184 2.11719V6.16895L6.68359 0.973633C7.06023 0.388266 7.71698 5.60233e-05 8.46484 0H12.7002Z" fill="white"/>
<path d="M18.5897 9.83302C20.154 10.8321 20.154 13.1679 18.5897 14.1669L3.80396 23.6102C2.14629 24.6689 -7.85345e-08 23.4462 0 21.4432L7.40505e-07 2.55674C8.1904e-07 0.553726 2.14629 -0.668923 3.80397 0.389785L18.5897 9.83302Z" fill="url(#paint0_linear_685_5278)"/>
<path d="M36.5162 10.8945C35.9447 10.8945 35.4125 10.8107 34.9198 10.6432C34.4369 10.4757 34.0082 10.2342 33.6337 9.91888C33.2691 9.59367 32.9734 9.20933 32.7468 8.76587C32.53 8.3224 32.3969 7.8198 32.3477 7.25808H34.0624C34.1018 7.66213 34.2299 8.02183 34.4467 8.33718C34.6635 8.65254 34.9493 8.90383 35.3041 9.09108C35.6687 9.27832 36.0728 9.37194 36.5162 9.37194C36.94 9.37194 37.3096 9.30788 37.6249 9.17977C37.9501 9.05166 38.2014 8.87427 38.3788 8.64761C38.5562 8.41109 38.6449 8.14501 38.6449 7.84937C38.6449 7.43547 38.5118 7.11026 38.2458 6.87374C37.9797 6.62737 37.6446 6.44506 37.2406 6.3268L35.4076 5.79464C34.9345 5.65667 34.496 5.47436 34.092 5.24769C33.6978 5.02103 33.3775 4.71553 33.1311 4.3312C32.8946 3.94686 32.7763 3.45412 32.7763 2.85297C32.7763 2.42921 32.865 2.04488 33.0424 1.69996C33.2198 1.34518 33.4711 1.04461 33.7963 0.798241C34.1215 0.542015 34.5059 0.344919 34.9493 0.206951C35.4027 0.0689838 35.8954 0 36.4276 0C36.9794 0 37.4771 0.0739111 37.9206 0.221733C38.3739 0.359701 38.7681 0.561725 39.1031 0.827805C39.4382 1.09389 39.7043 1.41909 39.9014 1.80343C40.1083 2.17792 40.2315 2.60167 40.2709 3.07471H38.571C38.4921 2.63124 38.2655 2.26168 37.891 1.96604C37.5264 1.66054 37.0386 1.50779 36.4276 1.50779C35.8363 1.50779 35.3731 1.62605 35.038 1.86256C34.703 2.09908 34.5354 2.42429 34.5354 2.83819C34.5354 3.20282 34.6586 3.48861 34.905 3.69556C35.1514 3.89266 35.4667 4.05033 35.851 4.16859L37.7136 4.70075C38.2063 4.83872 38.6547 5.02596 39.0588 5.26248C39.4727 5.48914 39.7979 5.80449 40.0344 6.20854C40.2808 6.61259 40.404 7.14475 40.404 7.80502C40.404 8.42588 40.2414 8.96789 39.9162 9.43107C39.6008 9.89424 39.1524 10.2539 38.571 10.5102C37.9895 10.7664 37.3046 10.8945 36.5162 10.8945Z" fill="white"/>
<path d="M43.9466 10.8945C43.4342 10.8945 42.9759 10.8009 42.5719 10.6136C42.1777 10.4264 41.8673 10.1702 41.6406 9.84497C41.4139 9.50991 41.3006 9.12557 41.3006 8.69196C41.3006 8.24849 41.4041 7.86415 41.611 7.53894C41.818 7.20388 42.1186 6.9378 42.5128 6.7407C42.9069 6.53375 43.38 6.39085 43.9318 6.31202L45.5727 6.09028C45.7993 6.06072 45.9669 5.99173 46.0753 5.88333C46.1837 5.77493 46.2379 5.63203 46.2379 5.45465C46.2379 5.11958 46.095 4.83872 45.8092 4.61206C45.5234 4.3854 45.1292 4.27207 44.6266 4.27207C44.1634 4.27207 43.7742 4.39032 43.4588 4.62684C43.1533 4.8535 42.9809 5.17871 42.9414 5.60247H41.3597C41.4189 5.07031 41.5864 4.60713 41.8623 4.21294C42.1481 3.81874 42.5226 3.51817 42.9858 3.31122C43.4588 3.09442 44.0058 2.98601 44.6266 2.98601C45.277 2.98601 45.8437 3.10427 46.3266 3.34079C46.8193 3.5773 47.1938 3.90744 47.45 4.3312C47.7161 4.75495 47.8491 5.25262 47.8491 5.8242V8.86934C47.8491 9.08615 47.8935 9.24383 47.9822 9.34237C48.0709 9.43107 48.199 9.47541 48.3665 9.47541C48.4158 9.47541 48.4601 9.47541 48.4996 9.47541C48.539 9.46556 48.5735 9.4557 48.603 9.44585V10.7763C48.5143 10.7861 48.4059 10.8009 48.2778 10.8206C48.1497 10.8502 48.0068 10.8649 47.8491 10.8649C47.4549 10.8649 47.1248 10.7664 46.8587 10.5693C46.6025 10.3722 46.4547 10.0667 46.4153 9.6528C46.297 9.90903 46.1147 10.1308 45.8683 10.318C45.622 10.5052 45.3362 10.6481 45.011 10.7467C44.6857 10.8452 44.331 10.8945 43.9466 10.8945ZM44.1979 9.63802C44.8483 9.63802 45.3559 9.43107 45.7205 9.01716C46.095 8.60326 46.2822 8.06617 46.2822 7.4059V7.12504L44.1979 7.46503C43.7742 7.53401 43.4539 7.66705 43.2371 7.86415C43.0203 8.05139 42.9119 8.30762 42.9119 8.63283C42.9119 8.92847 43.0301 9.16991 43.2666 9.35716C43.5032 9.5444 43.8136 9.63802 44.1979 9.63802Z" fill="white"/>
<path d="M51.3332 10.7763L48.5246 3.10427H50.1654L52.1167 8.92847L54.0827 3.10427H55.694L52.9002 10.7763H51.3332Z" fill="white"/>
<path d="M57.5491 6.9033C57.5491 7.73111 57.7511 8.3766 58.1551 8.83978C58.569 9.2931 59.116 9.51976 59.796 9.51976C60.269 9.51976 60.678 9.41629 61.0229 9.20933C61.3678 8.99253 61.5846 8.68703 61.6733 8.29284H63.255C63.1663 8.84471 62.9594 9.31774 62.6342 9.71193C62.3188 10.0963 61.9098 10.3919 61.4072 10.5989C60.9145 10.796 60.3626 10.8945 59.7516 10.8945C59.1505 10.8945 58.6134 10.7861 58.1403 10.5693C57.6673 10.3525 57.2682 10.0618 56.943 9.69715C56.6276 9.32266 56.3862 8.89891 56.2187 8.42588C56.0511 7.95284 55.9674 7.45518 55.9674 6.93287C55.9674 6.41056 56.0462 5.91782 56.2039 5.45465C56.3616 4.98161 56.5981 4.55786 56.9134 4.18337C57.2288 3.80889 57.618 3.51817 58.0812 3.31122C58.5444 3.09442 59.0766 2.98601 59.6777 2.98601C60.269 2.98601 60.7913 3.08949 61.2446 3.29644C61.6979 3.49354 62.0774 3.76454 62.3829 4.10946C62.6884 4.45438 62.915 4.84857 63.0628 5.29204C63.2205 5.73551 63.2994 6.19376 63.2994 6.66679C63.2994 6.81461 63.2944 6.96243 63.2846 7.11026C63.2747 7.24822 63.2698 7.31721 63.2698 7.31721H56.8986V6.04594H61.5698C61.5501 5.70102 61.4614 5.39552 61.3037 5.12944C61.1461 4.8535 60.9293 4.64162 60.6533 4.4938C60.3872 4.33612 60.062 4.25728 59.6777 4.25728C59.3426 4.25728 59.0421 4.32134 58.776 4.44945C58.5198 4.56771 58.298 4.74017 58.1108 4.96683C57.9334 5.19349 57.7954 5.46943 57.6969 5.79464C57.5983 6.11985 57.5491 6.4894 57.5491 6.9033Z" fill="white"/>
<path d="M69.1225 10.8793C68.4346 10.8793 67.8253 10.7564 67.2946 10.5107C66.7738 10.2552 66.3659 9.90145 66.0711 9.4494C65.7763 8.99734 65.6289 8.48141 65.6289 7.90161C65.6289 7.36111 65.7223 6.90414 65.909 6.53071C66.1055 6.15727 66.361 5.8428 66.6755 5.58729C66.9998 5.32196 67.3438 5.09593 67.7074 4.90921L69.5057 4.02476C69.8399 3.8577 70.1052 3.65624 70.3018 3.42039C70.4983 3.18454 70.5966 2.90446 70.5966 2.58016C70.5966 2.24603 70.4836 1.97579 70.2575 1.76941C70.0413 1.55321 69.7662 1.44512 69.432 1.44512C69.2158 1.44512 69.0193 1.49425 68.8424 1.59252C68.6655 1.68097 68.523 1.81364 68.4149 1.99053C68.3167 2.15759 68.2675 2.35413 68.2675 2.58016C68.2675 2.75705 68.3265 2.94868 68.4444 3.15505C68.5623 3.3516 68.7147 3.56288 68.9014 3.78891C69.0979 4.01494 69.3043 4.2557 69.5205 4.51121L74.9893 10.7613H72.9256L68.3117 5.45463C67.9383 5.02223 67.6337 4.64388 67.3978 4.31958C67.1718 3.99528 67.0047 3.69555 66.8966 3.42039C66.7983 3.14523 66.7492 2.86515 66.7492 2.58016C66.7492 2.06914 66.8573 1.62201 67.0735 1.23874C67.2995 0.845654 67.614 0.545923 68.0169 0.339552C68.4198 0.123353 68.8915 0.0152531 69.432 0.0152531C69.9725 0.0152531 70.4393 0.123353 70.8324 0.339552C71.2255 0.545923 71.5302 0.845654 71.7464 1.23874C71.9724 1.62201 72.0854 2.06914 72.0854 2.58016C72.0854 3.01256 72.0068 3.39091 71.8495 3.71521C71.6923 4.0395 71.481 4.31958 71.2157 4.55543C70.9504 4.79129 70.6604 4.99275 70.346 5.15981L68.636 6.07374C68.2626 6.28011 67.9481 6.52088 67.6926 6.79604C67.4469 7.07121 67.3241 7.41516 67.3241 7.8279C67.3241 8.11289 67.4027 8.37331 67.56 8.60917C67.727 8.84502 67.953 9.03174 68.238 9.16932C68.523 9.3069 68.8424 9.37569 69.1962 9.37569C69.6974 9.37569 70.1396 9.25776 70.5229 9.02191C70.916 8.77623 71.2599 8.46667 71.5547 8.09324C71.8495 7.70997 72.11 7.30706 72.336 6.88449C72.562 6.45209 72.7635 6.05409 72.9404 5.69048H74.7093C74.4341 6.28011 74.1245 6.87957 73.7806 7.48886C73.4366 8.08832 73.0386 8.64848 72.5866 9.16932C72.1444 9.68033 71.6383 10.0931 71.0683 10.4076C70.4983 10.722 69.8497 10.8793 69.1225 10.8793Z" fill="white"/>
<path d="M32.3477 23.8817V13.2237H36.8119C37.5116 13.2237 38.1127 13.3519 38.6153 13.6081C39.1278 13.8545 39.522 14.2142 39.7979 14.6872C40.0837 15.1602 40.2266 15.7219 40.2266 16.3724C40.2266 16.7764 40.1576 17.1558 40.0196 17.5106C39.8915 17.8555 39.6994 18.1659 39.4431 18.4419C39.1968 18.708 38.8913 18.9198 38.5266 19.0775C38.911 19.245 39.2017 19.4766 39.3988 19.7723C39.6057 20.0581 39.7585 20.4424 39.857 20.9253L40.2118 22.6548C40.2512 22.8618 40.3054 23.0786 40.3744 23.3052C40.4434 23.522 40.5272 23.7142 40.6257 23.8817H38.7779C38.6991 23.7536 38.6301 23.6107 38.571 23.4531C38.5217 23.2954 38.4872 23.1377 38.4675 22.98L38.1719 21.2801C38.1029 20.8662 37.9698 20.5311 37.7727 20.2749C37.5855 20.0088 37.3194 19.8166 36.9745 19.6984C36.6296 19.5703 36.1861 19.5062 35.6441 19.5062H34.0624V23.8817H32.3477ZM36.5902 17.9836C36.9844 17.9836 37.3194 17.9196 37.5954 17.7915C37.8811 17.6633 38.0979 17.481 38.2458 17.2445C38.3936 16.9981 38.4675 16.7074 38.4675 16.3724C38.4675 15.8599 38.3 15.4608 37.9649 15.175C37.6397 14.8892 37.1814 14.7463 36.5902 14.7463H34.0624V17.9836H36.5902Z" fill="white"/>
<path d="M42.7938 20.0088C42.7938 20.8366 42.9959 21.4821 43.3999 21.9453C43.8138 22.3986 44.3608 22.6253 45.0407 22.6253C45.5138 22.6253 45.9228 22.5218 46.2677 22.3148C46.6126 22.098 46.8294 21.7925 46.9181 21.3983H48.4998C48.4111 21.9502 48.2041 22.4232 47.8789 22.8174C47.5636 23.2018 47.1546 23.4974 46.652 23.7044C46.1593 23.9014 45.6074 24 44.9964 24C44.3953 24 43.8582 23.8916 43.3851 23.6748C42.9121 23.458 42.513 23.1673 42.1878 22.8026C41.8724 22.4282 41.631 22.0044 41.4634 21.5314C41.2959 21.0583 41.2121 20.5607 41.2121 20.0384C41.2121 19.5161 41.291 19.0233 41.4487 18.5601C41.6063 18.0871 41.8429 17.6633 42.1582 17.2889C42.4736 16.9144 42.8628 16.6237 43.326 16.4167C43.7892 16.1999 44.3213 16.0915 44.9225 16.0915C45.5138 16.0915 46.0361 16.195 46.4894 16.4019C46.9427 16.599 47.3221 16.87 47.6276 17.215C47.9331 17.5599 48.1598 17.9541 48.3076 18.3975C48.4653 18.841 48.5441 19.2992 48.5441 19.7723C48.5441 19.9201 48.5392 20.0679 48.5294 20.2157C48.5195 20.3537 48.5146 20.4227 48.5146 20.4227H42.1434V19.1514H46.8146C46.7949 18.8065 46.7062 18.501 46.5485 18.2349C46.3909 17.959 46.1741 17.7471 45.8981 17.5993C45.632 17.4416 45.3068 17.3628 44.9225 17.3628C44.5874 17.3628 44.2869 17.4268 44.0208 17.5549C43.7645 17.6732 43.5428 17.8457 43.3556 18.0723C43.1782 18.299 43.0402 18.5749 42.9417 18.9001C42.8431 19.2253 42.7938 19.5949 42.7938 20.0088Z" fill="white"/>
<path d="M52.6184 24C51.9778 24 51.4161 23.8817 50.9332 23.6452C50.4503 23.4087 50.0709 23.0884 49.795 22.6844C49.519 22.2705 49.3663 21.8024 49.3367 21.2801H50.9184C50.9381 21.6151 51.1007 21.9206 51.4062 22.1966C51.7216 22.4725 52.1256 22.6105 52.6184 22.6105C53.0421 22.6105 53.3821 22.5218 53.6384 22.3444C53.9044 22.167 54.0375 21.9453 54.0375 21.6792C54.0375 21.423 53.9488 21.2259 53.7714 21.0879C53.6039 20.9401 53.3772 20.8366 53.0914 20.7775L51.8201 20.4818C51.4457 20.3931 51.0958 20.265 50.7706 20.0975C50.4454 19.93 50.1793 19.6984 49.9724 19.4027C49.7753 19.1071 49.6767 18.7227 49.6767 18.2497C49.6767 17.8457 49.79 17.481 50.0167 17.1558C50.2532 16.8306 50.5784 16.5744 50.9923 16.3871C51.4062 16.19 51.899 16.0915 52.4706 16.0915C53.0126 16.0915 53.5004 16.19 53.934 16.3871C54.3775 16.5744 54.7372 16.8454 55.0131 17.2002C55.2989 17.5549 55.4713 17.9787 55.5305 18.4714H53.9488C53.9094 18.1364 53.7418 17.8752 53.4462 17.688C53.1604 17.5007 52.8352 17.4071 52.4706 17.4071C52.1256 17.4071 51.8398 17.481 51.6132 17.6289C51.3964 17.7767 51.288 17.9836 51.288 18.2497C51.288 18.4567 51.3717 18.6291 51.5393 18.7671C51.7068 18.9051 51.9236 19.0036 52.1897 19.0627L53.461 19.3436C53.8749 19.4323 54.2494 19.5555 54.5844 19.7131C54.9195 19.8708 55.1856 20.1024 55.3827 20.4079C55.5798 20.7134 55.6783 21.1224 55.6783 21.6348C55.6783 22.0783 55.5502 22.4774 55.294 22.8322C55.0476 23.187 54.6928 23.4728 54.2296 23.6896C53.7763 23.8965 53.2392 24 52.6184 24Z" fill="white"/>
<path d="M63.8302 16.2098V23.8817H62.219V22.5809C61.9529 23.0145 61.5981 23.3594 61.1547 23.6157C60.721 23.8719 60.2283 24 59.6764 24C59.1344 24 58.6565 23.8867 58.2426 23.66C57.8287 23.4333 57.5034 23.118 57.2669 22.7139C57.0304 22.3 56.9122 21.8172 56.9122 21.2653V16.2098H58.5234V20.9105C58.5234 21.3934 58.6663 21.7876 58.9521 22.0931C59.2379 22.3986 59.6272 22.5513 60.1199 22.5513C60.5535 22.5513 60.9231 22.4331 61.2286 22.1966C61.5439 21.96 61.7854 21.6201 61.9529 21.1766C62.1303 20.7233 62.219 20.1911 62.219 19.5801V16.2098H63.8302Z" fill="white"/>
<path d="M65.5754 23.8817V16.2098H67.1866V17.5254C67.3246 17.2396 67.497 16.9932 67.704 16.7863C67.9208 16.5695 68.1721 16.4019 68.4579 16.2837C68.7535 16.1556 69.0837 16.0915 69.4483 16.0915C70.0692 16.0915 70.5915 16.2245 71.0152 16.4906C71.4488 16.7468 71.7445 17.1213 71.9022 17.6141C72.1091 17.1805 72.4343 16.8208 72.8778 16.535C73.3212 16.2393 73.8337 16.0915 74.4151 16.0915C74.967 16.0915 75.44 16.1999 75.8342 16.4167C76.2383 16.6335 76.5536 16.939 76.7803 17.3332C77.0069 17.7274 77.1203 18.1857 77.1203 18.708V23.8817H75.509V19.1071C75.509 18.6143 75.376 18.2201 75.1099 17.9245C74.8438 17.6289 74.4644 17.481 73.9717 17.481C73.5873 17.481 73.2572 17.5894 72.9813 17.8062C72.7053 18.0132 72.4984 18.3088 72.3604 18.6932C72.2224 19.0677 72.1534 19.5062 72.1534 20.0088V23.8817H70.5422V19.1071C70.5422 18.6143 70.4091 18.2201 70.1431 17.9245C69.877 17.6289 69.5025 17.481 69.0196 17.481C68.6353 17.481 68.3051 17.5894 68.0292 17.8062C67.7533 18.023 67.5414 18.3236 67.3936 18.708C67.2556 19.0824 67.1866 19.5161 67.1866 20.0088V23.8817H65.5754Z" fill="white"/>
<path d="M79.9371 20.0088C79.9371 20.8366 80.1391 21.4821 80.5432 21.9453C80.9571 22.3986 81.504 22.6253 82.184 22.6253C82.657 22.6253 83.066 22.5218 83.4109 22.3148C83.7559 22.098 83.9727 21.7925 84.0614 21.3983H85.643C85.5544 21.9502 85.3474 22.4232 85.0222 22.8174C84.7068 23.2018 84.2979 23.4974 83.7953 23.7044C83.3025 23.9014 82.7507 24 82.1397 24C81.5385 24 81.0014 23.8916 80.5284 23.6748C80.0554 23.458 79.6562 23.1673 79.331 22.8026C79.0157 22.4282 78.7742 22.0044 78.6067 21.5314C78.4392 21.0583 78.3554 20.5607 78.3554 20.0384C78.3554 19.5161 78.4342 19.0233 78.5919 18.5601C78.7496 18.0871 78.9861 17.6633 79.3015 17.2889C79.6168 16.9144 80.0061 16.6237 80.4693 16.4167C80.9324 16.1999 81.4646 16.0915 82.0658 16.0915C82.657 16.0915 83.1793 16.195 83.6327 16.4019C84.086 16.599 84.4654 16.87 84.7709 17.215C85.0764 17.5599 85.3031 17.9541 85.4509 18.3975C85.6086 18.841 85.6874 19.2992 85.6874 19.7723C85.6874 19.9201 85.6825 20.0679 85.6726 20.2157C85.6628 20.3537 85.6578 20.4227 85.6578 20.4227H79.2867V19.1514H83.9579C83.9382 18.8065 83.8495 18.501 83.6918 18.2349C83.5341 17.959 83.3173 17.7471 83.0414 17.5993C82.7753 17.4416 82.4501 17.3628 82.0658 17.3628C81.7307 17.3628 81.4301 17.4268 81.164 17.5549C80.9078 17.6732 80.6861 17.8457 80.4988 18.0723C80.3214 18.299 80.1835 18.5749 80.0849 18.9001C79.9864 19.2253 79.9371 19.5949 79.9371 20.0088Z" fill="white"/>
<defs>
<linearGradient id="paint0_linear_685_5278" x1="0.411497" y1="-4.24583e-08" x2="18.6566" y2="23.8674" gradientUnits="userSpaceOnUse">
<stop stop-color="#FF1B47"/>
<stop offset="1" stop-color="#C60027"/>
</linearGradient>
</defs>
</svg>
